<svg width="17" height="16" viewBox="0 0 17 16" fill="none" xmlns="http://www.w3.org/2000/svg">
<path fill-rule="evenodd" clip-rule="evenodd" d="M4.25 10.5003C4.48012 10.5003 4.66667 10.6869 4.66667 10.917V12.167H12.3333V10.917C12.3333 10.6869 12.5199 10.5003 12.75 10.5003H13.5833C13.8135 10.5003 14 10.6869 14 10.917V13.0003C14 13.4606 13.6269 13.8337 13.1667 13.8337H3.83333C3.3731 13.8337 3 13.4606 3 13.0003V10.917C3 10.6869 3.18655 10.5003 3.41667 10.5003H4.25ZM8.89578 9.57467L12.0206 6.44988C12.1833 6.28716 12.1833 6.02334 12.0206 5.86062L11.4313 5.27137C11.2686 5.10865 11.0048 5.10865 10.8421 5.27137L9.33325 6.78007L9.33333 2.58366C9.33333 2.35354 9.14679 2.16699 8.91667 2.16699H8.08333C7.85321 2.16699 7.66667 2.35354 7.66667 2.58366L7.66624 6.57795L6.36024 5.27137C6.19753 5.10865 5.93371 5.10865 5.77099 5.27137L5.18173 5.86062C5.01902 6.02334 5.01902 6.28716 5.18173 6.44988L8.30652 9.57467C8.46924 9.73739 8.73306 9.73739 8.89578 9.57467Z" fill="#4D9EBF"/>
</svg>
