<svg width="40" height="40" viewBox="0 0 40 40" fill="none" xmlns="http://www.w3.org/2000/svg">
<path d="M10 25H7.5C7.16848 25 6.85054 25.1317 6.61612 25.3661C6.3817 25.6006 6.25 25.9185 6.25 26.25V33.75C6.25 34.0815 6.3817 34.3995 6.61612 34.6339C6.85054 34.8683 7.16848 35 7.5 35C7.83152 35 8.14946 34.8683 8.38388 34.6339C8.6183 34.3995 8.75 34.0815 8.75 33.75V32.5H10C10.9946 32.5 11.9484 32.1049 12.6517 31.4017C13.3549 30.6984 13.75 29.7446 13.75 28.75C13.75 27.7555 13.3549 26.8016 12.6517 26.0984C11.9484 25.3951 10.9946 25 10 25ZM10 30H8.75V27.5H10C10.3315 27.5 10.6495 27.6317 10.8839 27.8661C11.1183 28.1006 11.25 28.4185 11.25 28.75C11.25 29.0815 11.1183 29.3995 10.8839 29.6339C10.6495 29.8683 10.3315 30 10 30ZM30.625 27.5V29.375H33.125C33.4565 29.375 33.7745 29.5067 34.0089 29.7411C34.2433 29.9756 34.375 30.2935 34.375 30.625C34.375 30.9565 34.2433 31.2745 34.0089 31.5089C33.7745 31.7433 33.4565 31.875 33.125 31.875H30.625V33.75C30.625 34.0815 30.4933 34.3995 30.2589 34.6339C30.0245 34.8683 29.7065 35 29.375 35C29.0435 35 28.7255 34.8683 28.4911 34.6339C28.2567 34.3995 28.125 34.0815 28.125 33.75V26.25C28.125 25.9185 28.2567 25.6006 28.4911 25.3661C28.7255 25.1317 29.0435 25 29.375 25H33.75C34.0815 25 34.3995 25.1317 34.6339 25.3661C34.8683 25.6006 35 25.9185 35 26.25C35 26.5815 34.8683 26.8995 34.6339 27.1339C34.3995 27.3683 34.0815 27.5 33.75 27.5H30.625ZM20 25H17.8125C17.481 25 17.163 25.1317 16.9286 25.3661C16.6942 25.6006 16.5625 25.9185 16.5625 26.25V33.75C16.5625 34.0815 16.6942 34.3995 16.9286 34.6339C17.163 34.8683 17.481 35 17.8125 35H20C21.3261 35 22.5979 34.4732 23.5355 33.5356C24.4732 32.5979 25 31.3261 25 30C25 28.6739 24.4732 27.4022 23.5355 26.4645C22.5979 25.5268 21.3261 25 20 25ZM20 32.5H19.0625V27.5H20C20.663 27.5 21.2989 27.7634 21.7678 28.2323C22.2366 28.7011 22.5 29.337 22.5 30C22.5 30.6631 22.2366 31.2989 21.7678 31.7678C21.2989 32.2366 20.663 32.5 20 32.5ZM7.5 21.25H32.5C32.8315 21.25 33.1495 21.1183 33.3839 20.8839C33.6183 20.6495 33.75 20.3315 33.75 20V13.75C33.7519 13.4175 33.6228 13.0975 33.3906 12.8594L24.6406 4.1094C24.4025 3.87724 24.0826 3.74815 23.75 3.75002H8.75C8.08696 3.75002 7.45107 4.01341 6.98223 4.48225C6.51339 4.95109 6.25 5.58698 6.25 6.25002V20C6.25 20.3315 6.3817 20.6495 6.61612 20.8839C6.85054 21.1183 7.16848 21.25 7.5 21.25ZM23.75 6.87502L30.625 13.75H23.75V6.87502Z" fill="#4D9EBF"/>
</svg>
