<svg width="20" height="20" viewBox="0 0 20 20" fill="none" xmlns="http://www.w3.org/2000/svg">
<path fill-rule="evenodd" clip-rule="evenodd" d="M12.25 2.5C12.6642 2.5 13 2.83579 13 3.25L12.9996 3.99962L17.0193 4C17.1864 4 17.247 4.0174 17.3082 4.05009C17.3693 4.08277 17.4172 4.13073 17.4499 4.19184C17.4826 4.25295 17.5 4.31357 17.5 4.48073V5.01927C17.5 5.18643 17.4826 5.24705 17.4499 5.30816C17.4172 5.36927 17.3693 5.41723 17.3082 5.44991C17.247 5.48259 17.1864 5.5 17.0193 5.5L15.9996 5.49962L16 16.75C16 17.1642 15.6642 17.5 15.25 17.5H4.75C4.33579 17.5 4 17.1642 4 16.75L3.99962 5.49962L2.98073 5.5C2.81357 5.5 2.75295 5.48259 2.69184 5.44991C2.63073 5.41723 2.58277 5.36927 2.55009 5.30816C2.5174 5.24705 2.5 5.18643 2.5 5.01927V4.48073C2.5 4.31357 2.5174 4.25295 2.55009 4.19184C2.58277 4.13073 2.63073 4.08277 2.69184 4.05009C2.75295 4.0174 2.81357 4 2.98073 4L6.99962 3.99962L7 3.25C7 2.83579 7.33579 2.5 7.75 2.5H12.25ZM14.4996 5.49962H5.49962L5.5 16H14.5L14.4996 5.49962ZM8.875 7.75C9.08211 7.75 9.25 7.91789 9.25 8.125V13.375C9.25 13.5821 9.08211 13.75 8.875 13.75H8.125C7.91789 13.75 7.75 13.5821 7.75 13.375V8.125C7.75 7.91789 7.91789 7.75 8.125 7.75H8.875ZM11.875 7.75C12.0821 7.75 12.25 7.91789 12.25 8.125V13.375C12.25 13.5821 12.0821 13.75 11.875 13.75H11.125C10.9179 13.75 10.75 13.5821 10.75 13.375V8.125C10.75 7.91789 10.9179 7.75 11.125 7.75H11.875Z" fill="#666666"/>
</svg>
