<svg width="24" height="24" viewBox="0 0 24 24" fill="none" xmlns="http://www.w3.org/2000/svg">
<path d="M3.19687 1.5H1.5C1.08579 1.5 0.75 1.83579 0.75 2.25C0.75 2.66421 1.08579 3 1.5 3H3.1897L5.80586 17.3842C5.87071 17.7408 6.1813 18 6.54375 18H17.25C17.6642 18 18 17.6642 18 17.25C18 16.8358 17.6642 16.5 17.25 16.5H7.16965L4.66656 2.73753C4.57185 2.20455 4.15861 1.85489 4.15861 1.85489C3.74536 1.50522 3.19687 1.5 3.19687 1.5Z" fill="#666666"/>
<path fill-rule="evenodd" clip-rule="evenodd" d="M7.5 16.5C7.5 16.5 8.58731 16.5 9.35616 17.2688C9.35616 17.2688 10.125 18.0377 10.125 19.125C10.125 19.125 10.125 20.2123 9.35616 20.9812C9.35616 20.9812 8.58731 21.75 7.5 21.75C7.5 21.75 6.41269 21.75 5.64384 20.9812C5.64384 20.9812 4.875 20.2123 4.875 19.125C4.875 19.125 4.875 18.0377 5.64384 17.2688C5.64384 17.2688 6.41269 16.5 7.5 16.5ZM7.5 18C7.5 18 7.03401 18 6.7045 18.3295C6.7045 18.3295 6.375 18.659 6.375 19.125C6.375 19.125 6.375 19.591 6.7045 19.9205C6.7045 19.9205 7.03401 20.25 7.5 20.25C7.5 20.25 7.96599 20.25 8.29549 19.9205C8.29549 19.9205 8.625 19.591 8.625 19.125C8.625 19.125 8.625 18.659 8.29549 18.3295C8.29549 18.3295 7.96599 18 7.5 18Z" fill="#666666"/>
<path fill-rule="evenodd" clip-rule="evenodd" d="M17.25 16.5C17.25 16.5 18.3373 16.5 19.1062 17.2688C19.1062 17.2688 19.875 18.0377 19.875 19.125C19.875 19.125 19.875 20.2123 19.1062 20.9812C19.1062 20.9812 18.3373 21.75 17.25 21.75C17.25 21.75 16.1627 21.75 15.3938 20.9812C15.3938 20.9812 14.625 20.2123 14.625 19.125C14.625 19.125 14.625 18.0377 15.3938 17.2688C15.3938 17.2688 16.1627 16.5 17.25 16.5ZM17.25 18C17.25 18 16.784 18 16.4545 18.3295C16.4545 18.3295 16.125 18.659 16.125 19.125C16.125 19.125 16.125 19.591 16.4545 19.9205C16.4545 19.9205 16.784 20.25 17.25 20.25C17.25 20.25 17.716 20.25 18.0455 19.9205C18.0455 19.9205 18.375 19.591 18.375 19.125C18.375 19.125 18.375 18.659 18.0455 18.3295C18.0455 18.3295 17.716 18 17.25 18Z" fill="#666666"/>
<path d="M20.25 5.25H4.5C4.08579 5.25 3.75 5.58579 3.75 6C3.75 6.41421 4.08579 6.75 4.5 6.75H19.3509L18.3684 12.1373C18.3205 12.4053 18.1134 12.578 18.1134 12.578C17.9063 12.7508 17.6367 12.75 17.6367 12.75L5.85938 12.75C5.44516 12.75 5.10938 13.0858 5.10938 13.5C5.10938 13.9142 5.44516 14.25 5.85938 14.25L17.6321 14.25C18.448 14.2525 19.0744 13.7298 19.0744 13.7298C19.7009 13.2071 19.8441 12.4064 19.8441 12.4064L20.9878 6.13455C20.9959 6.09016 21 6.04513 21 6C21 5.58579 20.6642 5.25 20.25 5.25Z" fill="#666666"/>
</svg>
