<svg width="24" height="24" viewBox="0 0 24 24" fill="none" xmlns="http://www.w3.org/2000/svg">
<path fill-rule="evenodd" clip-rule="evenodd" d="M13.8562 3.65974C13.8562 3.65974 12.7246 4.26233 12 5.23523C12 5.23523 11.2754 4.26233 10.1438 3.65974C10.1438 3.65974 8.36879 2.71455 6.39685 3.10894C6.39685 3.10894 4.4249 3.50333 3.14995 5.05852C3.14995 5.05852 1.875 6.61371 1.875 8.62471C1.875 8.62471 1.875 12.9431 6.81078 17.3853C6.81078 17.3853 8.31476 18.7389 10.1163 19.9519C10.1163 19.9519 11.0207 20.5609 11.6335 20.9041C11.8612 21.0316 12.1388 21.0316 12.3666 20.904C12.3666 20.904 12.9818 20.5593 13.8868 19.9498C13.8868 19.9498 15.6883 18.7365 17.192 17.3828C17.192 17.3828 22.125 12.9418 22.125 8.6247C22.125 8.6247 22.125 6.61371 20.85 5.05852C20.85 5.05852 19.5751 3.50333 17.6032 3.10894C17.6032 3.10894 15.6312 2.71455 13.8562 3.65974ZM9.4388 4.98373C9.4388 4.98373 10.7405 5.67687 11.3077 7.03817C11.3838 7.22077 11.5289 7.36592 11.7116 7.44203L11.7142 7.4431C11.8971 7.51843 12.1026 7.51853 12.2856 7.44321L12.2885 7.44201C12.4711 7.36592 12.6162 7.22077 12.6923 7.03817C12.6923 7.03817 13.2595 5.67687 14.5612 4.98373C14.5612 4.98373 15.8629 4.29059 17.309 4.57981C17.309 4.57981 18.7551 4.86903 19.69 6.0095C19.69 6.0095 20.625 7.14997 20.625 8.6247C20.625 8.6247 20.625 12.2739 16.1884 16.268C16.1884 16.268 14.763 17.5512 13.0489 18.7057C13.0489 18.7057 12.4533 19.1068 12 19.3812C12 19.3812 11.5484 19.1079 10.954 18.7077C10.954 18.7077 9.23992 17.5535 7.81422 16.2704C7.81422 16.2704 3.375 12.2751 3.375 8.62471C3.375 8.62471 3.375 7.14997 4.30996 6.0095C4.30996 6.0095 5.24493 4.86903 6.69102 4.57981C6.69102 4.57981 8.13711 4.29059 9.4388 4.98373Z" fill="#666666"/>
</svg>
