<svg  viewBox="0 0 110 24" fill="none" xmlns="http://www.w3.org/2000/svg">
<path d="M11 0V4L4.06501 20.0227H11V24H0V20L6.95462 3.98095L0 4.00023V0.000228354L11 0Z" fill="#CCCCCC"/>
<path d="M18 24H14V0H18V24Z" fill="#CCCCCC"/>
<path d="M21 23.9998V0H32V4H25V10H30.0782V14H25V20H32V24L21 23.9998Z" fill="#CCCCCC"/>
<path d="M46 24H35V0H39.037V20H46V24Z" fill="#CCCCCC"/>
<path d="M53 14V24H49V0H53V10H57V0H61V24H57V14H53Z" fill="#CCCCCC"/>
<path d="M92 9L94 0H91L87.5 17L84 0H79V24H83L82.6637 8.95696L86 24H89L92 9V24H96V9H92Z" fill="#CCCCCC"/>
<path d="M99 0V13.1921L101 10H103V4H110V0H99Z" fill="#CCCCCC"/>
<path d="M110 13H104L101 10H107L110 13Z" fill="#CCCCCC"/>
<path fill-rule="evenodd" clip-rule="evenodd" d="M70 0C66.6863 0 64 2.68629 64 6V18C64 21.3137 66.6863 24 70 24C73.3137 24 76 21.3137 76 18V6C76 2.68629 73.3137 0 70 0ZM70 4C68.8954 4 68 4.89543 68 6V18C68 19.1046 68.8954 20 70 20C71.1046 20 72 19.1046 72 18V6C72 4.89543 71.1046 4 70 4Z" fill="#CCCCCC"/>
<rect x="99" y="20" width="11" height="4" fill="#CCCCCC"/>
</svg>
