<svg width="32" height="32" viewBox="0 0 32 32" fill="none" xmlns="http://www.w3.org/2000/svg">
<path fill-rule="evenodd" clip-rule="evenodd" d="M20.2857 26H11.7143C8.55837 26 6 23.4416 6 20.2857V11.7143C6 8.55837 8.55837 6 11.7143 6H20.2857C23.4416 6 26 8.55837 26 11.7143V20.2857C26 23.4416 23.4416 26 20.2857 26Z" stroke="#222222" stroke-width="2" stroke-linecap="round" stroke-linejoin="round"/>
<path d="M15.8317 18.7461C15.2794 18.7461 14.8317 19.1938 14.8317 19.7461C14.8317 20.2984 15.2794 20.7461 15.8317 20.7461V18.7461ZM13.7093 14.5217L14.3266 13.7349C14.2867 13.7036 14.2444 13.6753 14.2002 13.6504L13.7093 14.5217ZM13.0019 13.3787L14.001 13.4214C14.0016 13.4072 14.0019 13.3929 14.0019 13.3787H13.0019ZM15.8317 12.5831C16.384 12.5831 16.8317 12.1354 16.8317 11.5831C16.8317 11.0309 16.384 10.5831 15.8317 10.5831V12.5831ZM15.7985 20.7462C16.3505 20.7645 16.8127 20.3318 16.831 19.7798C16.8492 19.2278 16.4165 18.7656 15.8646 18.7473L15.7985 20.7462ZM13.988 17.1858C14.0791 16.6411 13.7113 16.1256 13.1666 16.0345C12.6219 15.9435 12.1065 16.3112 12.0154 16.8559L13.988 17.1858ZM16.8317 19.7448C16.8317 19.1925 16.384 18.7448 15.8317 18.7448C15.2794 18.7448 14.8317 19.1925 14.8317 19.7448H16.8317ZM14.8317 21.3781C14.8317 21.9304 15.2794 22.3781 15.8317 22.3781C16.384 22.3781 16.8317 21.9304 16.8317 21.3781H14.8317ZM15.7861 10.5837C15.2344 10.6088 14.8075 11.0765 14.8326 11.6282C14.8577 12.1799 15.3254 12.6068 15.8771 12.5817L15.7861 10.5837ZM17.9781 12.2879L17.317 13.0382V13.0382L17.9781 12.2879ZM17.677 13.9008C17.5799 14.4445 17.9419 14.9639 18.4856 15.061C19.0293 15.1581 19.5487 14.7961 19.6458 14.2524L17.677 13.9008ZM14.8317 11.5829C14.8317 12.1351 15.2794 12.5829 15.8317 12.5829C16.384 12.5829 16.8317 12.1351 16.8317 11.5829H14.8317ZM16.8317 9.94958C16.8317 9.3973 16.384 8.94958 15.8317 8.94958C15.2794 8.94958 14.8317 9.3973 14.8317 9.94958H16.8317ZM15.8317 20.7461C16.3968 20.7461 17.2592 20.6422 18.0203 20.2903C18.7959 19.9316 19.6615 19.2014 19.6615 17.9288H17.6615C17.6615 18.11 17.5841 18.2885 17.1808 18.475C16.7629 18.6682 16.2104 18.7461 15.8317 18.7461V20.7461ZM19.6615 17.9288C19.6615 17.1569 19.3551 16.5512 18.8684 16.0971C18.4296 15.6877 17.8644 15.4214 17.3664 15.2136C16.275 14.7582 15.247 14.4571 14.3266 13.7349L13.0921 15.3084C14.2941 16.2515 15.7421 16.703 16.5963 17.0594C17.071 17.2575 17.3459 17.4119 17.504 17.5594C17.6142 17.6623 17.6615 17.7497 17.6615 17.9288H19.6615ZM14.2002 13.6504C14.1032 13.5958 14.0509 13.5369 14.026 13.4966C14.0023 13.4582 14.0004 13.4339 14.001 13.4214L12.0028 13.336C11.9644 14.2355 12.4962 14.986 13.2185 15.3929L14.2002 13.6504ZM14.0019 13.3787C14.0019 13.1458 14.0613 13.04 14.1036 12.9851C14.1553 12.918 14.2519 12.8391 14.4327 12.7672C14.8257 12.6107 15.3578 12.5831 15.8317 12.5831V10.5831C15.3619 10.5831 14.4791 10.5961 13.6931 10.9089C13.2845 11.0715 12.8505 11.3344 12.5191 11.7647C12.1783 12.2071 12.0019 12.7544 12.0019 13.3787H14.0019ZM15.8646 18.7473C15.2422 18.7268 14.7035 18.4948 14.3649 18.1686L12.9774 19.609C13.7159 20.3204 14.7458 20.7114 15.7985 20.7462L15.8646 18.7473ZM14.3649 18.1686C14.0361 17.8519 13.9362 17.4954 13.988 17.1858L12.0154 16.8559C11.8428 17.8883 12.2289 18.8881 12.9774 19.609L14.3649 18.1686ZM14.8317 19.7448V21.3781H16.8317V19.7448H14.8317ZM15.8771 12.5817C16.4594 12.5551 16.9851 12.7457 17.317 13.0382L18.6393 11.5377C17.8745 10.8637 16.8243 10.5365 15.7861 10.5837L15.8771 12.5817ZM17.317 13.0382C17.6374 13.3206 17.7238 13.6385 17.677 13.9008L19.6458 14.2524C19.8308 13.217 19.4156 12.2218 18.6393 11.5377L17.317 13.0382ZM16.8317 11.5829V9.94958H14.8317V11.5829H16.8317Z" fill="#222222"/>
</svg>
