<svg width="32" height="32" viewBox="0 0 32 32" fill="none" xmlns="http://www.w3.org/2000/svg">
<rect width="32" height="32" fill="#FFCB01"/>
<mask id="mask0_2505_23317" style="mask-type:alpha" maskUnits="userSpaceOnUse" x="0" y="0" width="32" height="32">
<rect width="32" height="32" fill="#FFCB01"/>
</mask>
<g mask="url(#mask0_2505_23317)">
<path d="M2.31704 12L1 14.0816H8.17808C8.54106 14.0816 8.53653 14.2406 8.35912 14.5217C8.17899 14.806 7.87756 15.2977 7.69381 15.5873C7.60058 15.7336 7.43221 16 7.98981 16H10.9253L11.7952 14.6249C12.3347 13.7731 11.8423 12.0011 9.91332 12.0011L2.31704 12Z" fill="#D80613"/>
<path d="M1.23901 18L3.80625 14.3H6.99181C7.344 14.3 7.33961 14.4415 7.16747 14.6893L6.51753 15.6283C6.42707 15.7578 6.26371 15.9935 6.80473 15.9935H11.0715C10.7175 16.5095 9.5652 18 7.49946 18H1.23901ZM15.9398 15.9925L14.5477 18H10.8756L12.2677 15.9925H15.9398ZM21.5644 15.538H12.5839L15.0396 12H18.71L17.3029 14.0289H18.941L20.3497 12H24.0201L21.5644 15.538ZM21.2491 15.9925L19.857 18H16.1866L17.5787 15.9925H21.2491ZM-4 16.7844H1.40852L1.11341 17.2101H-4V16.7844ZM-4 15.9925H1.95832L1.66234 16.4183H-4V15.9925ZM-4 17.5762H0.859583L0.565356 18H-4V17.5762ZM36 17.2101H30.6108L30.9068 16.7844H36V17.2101ZM36 18H30.0636L30.357 17.5762H36V18ZM31.4557 15.9925H36V16.4192H31.1606L31.4557 15.9925ZM29.1037 12L26.648 15.538H22.758L25.2155 12H29.1037ZM22.4436 15.9925C22.4436 15.9925 22.1757 16.3819 22.0448 16.5682C21.5846 17.2296 21.9913 17.9991 23.4958 17.9991H29.3909L30.783 15.9925H22.4436Z" fill="#D80613"/>
</g>
</svg>
