<svg width="32" height="32" viewBox="0 0 32 32" fill="none" xmlns="http://www.w3.org/2000/svg">
<path d="M5.0259 11.9282C4.90102 12.4662 5.2359 13.0035 5.77389 13.1284C6.31187 13.2533 6.84922 12.9184 6.9741 12.3804L5.0259 11.9282ZM7.42857 6V5C6.9634 5 6.55965 5.32076 6.45447 5.77389L7.42857 6ZM16 7C16.5523 7 17 6.55228 17 6C17 5.44772 16.5523 5 16 5V7ZM7 12.1543C7 11.602 6.55228 11.1543 6 11.1543C5.44772 11.1543 5 11.602 5 12.1543H7ZM6 26H5C5 26.5523 5.44772 27 6 27V26ZM26 26V27C26.5523 27 27 26.5523 27 26H26ZM27 12.1543C27 11.602 26.5523 11.1543 26 11.1543C25.4477 11.1543 25 11.602 25 12.1543H27ZM6 11.1543C5.44772 11.1543 5 11.6021 5 12.1543C5 12.7066 5.44772 13.1543 6 13.1543V11.1543ZM16 13.1543C16.5523 13.1543 17 12.7066 17 12.1543C17 11.6021 16.5523 11.1543 16 11.1543V13.1543ZM16 5C15.4478 5 15 5.44772 15 6C15 6.55228 15.4478 7 16 7V5ZM24.5715 6L25.5456 5.77389C25.4404 5.32076 25.0366 5 24.5715 5V6ZM25.0259 12.3804C25.1508 12.9184 25.6882 13.2533 26.2262 13.1284C26.7641 13.0035 27.099 12.4662 26.9741 11.9282L25.0259 12.3804ZM17 6C17 5.44772 16.5522 5 16 5C15.4477 5 15 5.44772 15 6H17ZM15 12.1543C15 12.7066 15.4477 13.1543 16 13.1543C16.5522 13.1543 17 12.7066 17 12.1543H15ZM16 11.1543C15.4478 11.1543 15 11.6021 15 12.1543C15 12.7066 15.4478 13.1543 16 13.1543V11.1543ZM26 13.1543C26.5523 13.1543 27 12.7066 27 12.1543C27 11.6021 26.5523 11.1543 26 11.1543V13.1543ZM17 12.1543C17 11.602 16.5522 11.1543 16 11.1543C15.4477 11.1543 15 11.602 15 12.1543H17ZM15 16C15 16.5523 15.4477 17 16 17C16.5522 17 17 16.5523 17 16H15ZM6.9741 12.3804L8.40267 6.22611L6.45447 5.77389L5.0259 11.9282L6.9741 12.3804ZM7.42857 7H16V5H7.42857V7ZM5 12.1543V26H7V12.1543H5ZM6 27H26V25H6V27ZM27 26V12.1543H25V26H27ZM6 13.1543H16V11.1543H6V13.1543ZM16 7H24.5715V5H16V7ZM23.5974 6.22611L25.0259 12.3804L26.9741 11.9282L25.5456 5.77389L23.5974 6.22611ZM15 6V12.1543H17V6H15ZM16 13.1543H26V11.1543H16V13.1543ZM15 12.1543V16H17V12.1543H15Z" fill="#222222"/>
</svg>
