<svg width="32" height="32" viewBox="0 0 32 32" fill="none" xmlns="http://www.w3.org/2000/svg">
<path fill-rule="evenodd" clip-rule="evenodd" d="M20.2857 26H11.7143C8.55837 26 6 23.4416 6 20.2857V11.7143C6 8.55837 8.55837 6 11.7143 6H20.2857C23.4416 6 26 8.55837 26 11.7143V20.2857C26 23.4416 23.4416 26 20.2857 26Z" stroke="#222222" stroke-width="2" stroke-linecap="round" stroke-linejoin="round"/>
<path d="M26 12.7143C26.5523 12.7143 27 12.2666 27 11.7143C27 11.162 26.5523 10.7143 26 10.7143V12.7143ZM6 10.7143C5.44772 10.7143 5 11.162 5 11.7143C5 12.2666 5.44772 12.7143 6 12.7143V10.7143ZM14.5714 19.2858C14.0191 19.2858 13.5714 19.7335 13.5714 20.2858C13.5714 20.838 14.0191 21.2858 14.5714 21.2858V19.2858ZM17.4286 21.2858C17.9809 21.2858 18.4286 20.838 18.4286 20.2858C18.4286 19.7335 17.9809 19.2858 17.4286 19.2858V21.2858ZM26 10.7143H6V12.7143H26V10.7143ZM14.5714 21.2858H17.4286V19.2858H14.5714V21.2858Z" fill="#222222"/>
</svg>
