<svg width="32" height="32" viewBox="0 0 32 32" fill="none" xmlns="http://www.w3.org/2000/svg">
<rect x="0.75" y="0.75" width="30.5" height="30.5" stroke="#222222" stroke-width="1.5"/>
<path d="M11 15.25C10.5858 15.25 10.25 15.5858 10.25 16C10.25 16.4142 10.5858 16.75 11 16.75V15.25ZM16 16.75C16.4142 16.75 16.75 16.4142 16.75 16C16.75 15.5858 16.4142 15.25 16 15.25V16.75ZM16 15.25C15.5858 15.25 15.25 15.5858 15.25 16C15.25 16.4142 15.5858 16.75 16 16.75V15.25ZM21 16.75C21.4142 16.75 21.75 16.4142 21.75 16C21.75 15.5858 21.4142 15.25 21 15.25V16.75ZM16.75 16C16.75 15.5858 16.4142 15.25 16 15.25C15.5858 15.25 15.25 15.5858 15.25 16H16.75ZM15.25 21C15.25 21.4142 15.5858 21.75 16 21.75C16.4142 21.75 16.75 21.4142 16.75 21H15.25ZM15.25 16C15.25 16.4142 15.5858 16.75 16 16.75C16.4142 16.75 16.75 16.4142 16.75 16H15.25ZM16.75 11C16.75 10.5858 16.4142 10.25 16 10.25C15.5858 10.25 15.25 10.5858 15.25 11H16.75ZM11 16.75H16V15.25H11V16.75ZM16 16.75H21V15.25H16V16.75ZM16 16H15.25C15.25 16 15.25 16 15.25 16C15.25 16 15.25 16 15.25 16C15.25 16 15.25 16 15.25 16C15.25 16 15.25 16 15.25 16C15.25 16 15.25 16 15.25 16C15.25 16 15.25 16 15.25 16C15.25 16 15.25 16 15.25 16C15.25 16 15.25 16 15.25 16C15.25 16 15.25 16 15.25 16C15.25 16 15.25 16 15.25 16C15.25 16.0001 15.25 16.0001 15.25 16.0001C15.25 16.0001 15.25 16.0001 15.25 16.0001C15.25 16.0001 15.25 16.0001 15.25 16.0001C15.25 16.0001 15.25 16.0001 15.25 16.0001C15.25 16.0001 15.25 16.0001 15.25 16.0002C15.25 16.0002 15.25 16.0002 15.25 16.0002C15.25 16.0002 15.25 16.0002 15.25 16.0002C15.25 16.0002 15.25 16.0002 15.25 16.0003C15.25 16.0003 15.25 16.0003 15.25 16.0003C15.25 16.0003 15.25 16.0003 15.25 16.0003C15.25 16.0004 15.25 16.0004 15.25 16.0004C15.25 16.0004 15.25 16.0004 15.25 16.0005C15.25 16.0005 15.25 16.0005 15.25 16.0005C15.25 16.0005 15.25 16.0006 15.25 16.0006C15.25 16.0006 15.25 16.0006 15.25 16.0007C15.25 16.0007 15.25 16.0007 15.25 16.0007C15.25 16.0008 15.25 16.0008 15.25 16.0008C15.25 16.0008 15.25 16.0009 15.25 16.0009C15.25 16.0009 15.25 16.001 15.25 16.001C15.25 16.001 15.25 16.0011 15.25 16.0011C15.25 16.0011 15.25 16.0012 15.25 16.0012C15.25 16.0013 15.25 16.0013 15.25 16.0013C15.25 16.0014 15.25 16.0014 15.25 16.0015C15.25 16.0015 15.25 16.0016 15.25 16.0016C15.25 16.0016 15.25 16.0017 15.25 16.0017C15.25 16.0018 15.25 16.0018 15.25 16.0019C15.25 16.0019 15.25 16.002 15.25 16.002C15.25 16.0021 15.25 16.0022 15.25 16.0022C15.25 16.0023 15.25 16.0023 15.25 16.0024C15.25 16.0024 15.25 16.0025 15.25 16.0026C15.25 16.0026 15.25 16.0027 15.25 16.0028C15.25 16.0028 15.25 16.0029 15.25 16.003C15.25 16.003 15.25 16.0031 15.25 16.0032C15.25 16.0032 15.25 16.0033 15.25 16.0034C15.25 16.0035 15.25 16.0035 15.25 16.0036C15.25 16.0037 15.25 16.0038 15.25 16.0039C15.25 16.004 15.25 16.004 15.25 16.0041C15.25 16.0042 15.25 16.0043 15.25 16.0044C15.25 16.0045 15.25 16.0046 15.25 16.0047C15.25 16.0047 15.25 16.0048 15.25 16.0049C15.25 16.005 15.25 16.0051 15.25 16.0052C15.25 16.0053 15.25 16.0054 15.25 16.0055C15.25 16.0057 15.25 16.0058 15.25 16.0059C15.25 16.006 15.25 16.0061 15.25 16.0062C15.25 16.0063 15.25 16.0064 15.25 16.0065C15.25 16.0067 15.25 16.0068 15.25 16.0069C15.25 16.007 15.25 16.0071 15.25 16.0073C15.25 16.0074 15.25 16.0075 15.25 16.0077C15.25 16.0078 15.25 16.0079 15.25 16.008C15.25 16.0082 15.25 16.0083 15.25 16.0085C15.25 16.0086 15.25 16.0087 15.25 16.0089C15.25 16.009 15.25 16.0092 15.25 16.0093C15.25 16.0095 15.25 16.0096 15.25 16.0098C15.25 16.0099 15.25 16.0101 15.25 16.0102C15.25 16.0104 15.25 16.0105 15.25 16.0107C15.25 16.0109 15.25 16.011 15.25 16.0112C15.25 16.0114 15.25 16.0115 15.25 16.0117C15.25 16.0119 15.25 16.0121 15.25 16.0122C15.25 16.0124 15.25 16.0126 15.25 16.0128C15.25 16.013 15.25 16.0131 15.25 16.0133C15.25 16.0135 15.25 16.0137 15.25 16.0139C15.25 16.0141 15.25 16.0143 15.25 16.0145C15.25 16.0147 15.25 16.0149 15.25 16.0151C15.25 16.0153 15.25 16.0155 15.25 16.0157C15.25 16.0159 15.25 16.0161 15.25 16.0164C15.25 16.0166 15.25 16.0168 15.25 16.017C15.25 16.0172 15.25 16.0175 15.25 16.0177C15.25 16.0179 15.25 16.0181 15.25 16.0184C15.25 16.0186 15.25 16.0188 15.25 16.0191C15.25 16.0193 15.25 16.0196 15.25 16.0198C15.25 16.02 15.25 16.0203 15.25 16.0205C15.25 16.0208 15.25 16.021 15.25 16.0213C15.25 16.0216 15.25 16.0218 15.25 16.0221C15.25 16.0223 15.25 16.0226 15.25 16.0229C15.25 16.0231 15.25 16.0234 15.25 16.0237C15.25 16.024 15.25 16.0242 15.25 16.0245C15.25 16.0248 15.25 16.0251 15.25 16.0254C15.25 16.0257 15.25 16.026 15.25 16.0263C15.25 16.0266 15.25 16.0269 15.25 16.0272C15.25 16.0275 15.25 16.0278 15.25 16.0281C15.25 16.0284 15.25 16.0287 15.25 16.029C15.25 16.0293 15.25 16.0296 15.25 16.03C15.25 16.0303 15.25 16.0306 15.25 16.0309C15.25 16.0313 15.25 16.0316 15.25 16.0319C15.25 16.0323 15.25 16.0326 15.25 16.033C15.25 16.0333 15.25 16.0336 15.25 16.034C15.25 16.0344 15.25 16.0347 15.25 16.0351C15.25 16.0354 15.25 16.0358 15.25 16.0361C15.25 16.0365 15.25 16.0369 15.25 16.0373C15.25 16.0376 15.25 16.038 15.25 16.0384C15.25 16.0388 15.25 16.0391 15.25 16.0395C15.25 16.0399 15.25 16.0403 15.25 16.0407C15.25 16.0411 15.25 16.0415 15.25 16.0419C15.25 16.0423 15.25 16.0427 15.25 16.0431C15.25 16.0435 15.25 16.044 15.25 16.0444C15.25 16.0448 15.25 16.0452 15.25 16.0456C15.25 16.0461 15.25 16.0465 15.25 16.0469C15.25 16.0474 15.25 16.0478 15.25 16.0482C15.25 16.0487 15.25 16.0491 15.25 16.0496C15.25 16.05 15.25 16.0505 15.25 16.0509C15.25 16.0514 15.25 16.0519 15.25 16.0523C15.25 16.0528 15.25 16.0533 15.25 16.0538C15.25 16.0542 15.25 16.0547 15.25 16.0552C15.25 16.0557 15.25 16.0562 15.25 16.0567C15.25 16.0571 15.25 16.0576 15.25 16.0581C15.25 16.0586 15.25 16.0592 15.25 16.0597C15.25 16.0602 15.25 16.0607 15.25 16.0612C15.25 16.0617 15.25 16.0622 15.25 16.0628C15.25 16.0633 15.25 16.0638 15.25 16.0644C15.25 16.0649 15.25 16.0655 15.25 16.066C15.25 16.0665 15.25 16.0671 15.25 16.0676C15.25 16.0682 15.25 16.0688 15.25 16.0693C15.25 16.0699 15.25 16.0705 15.25 16.071C15.25 16.0716 15.25 16.0722 15.25 16.0728C15.25 16.0733 15.25 16.0739 15.25 16.0745C15.25 16.0751 15.25 16.0757 15.25 16.0763C15.25 16.0769 15.25 16.0775 15.25 16.0781C15.25 16.0787 15.25 16.0794 15.25 16.08C15.25 16.0806 15.25 16.0812 15.25 16.0818C15.25 16.0825 15.25 16.0831 15.25 16.0837C15.25 16.0844 15.25 16.085 15.25 16.0857C15.25 16.0863 15.25 16.087 15.25 16.0876C15.25 16.0883 15.25 16.089 15.25 16.0896C15.25 16.0903 15.25 16.091 15.25 16.0917C15.25 16.0923 15.25 16.093 15.25 16.0937C15.25 16.0944 15.25 16.0951 15.25 16.0958C15.25 16.0965 15.25 16.0972 15.25 16.0979C15.25 16.0986 15.25 16.0993 15.25 16.1C15.25 16.1008 15.25 16.1015 15.25 16.1022C15.25 16.103 15.25 16.1037 15.25 16.1044C15.25 16.1052 15.25 16.1059 15.25 16.1067C15.25 16.1074 15.25 16.1082 15.25 16.1089C15.25 16.1097 15.25 16.1105 15.25 16.1112C15.25 16.112 15.25 16.1128 15.25 16.1136C15.25 16.1144 15.25 16.1151 15.25 16.1159C15.25 16.1167 15.25 16.1175 15.25 16.1183C15.25 16.1191 15.25 16.12 15.25 16.1208C15.25 16.1216 15.25 16.1224 15.25 16.1232C15.25 16.1241 15.25 16.1249 15.25 16.1257C15.25 16.1266 15.25 16.1274 15.25 16.1283C15.25 16.1291 15.25 16.13 15.25 16.1308C15.25 16.1317 15.25 16.1326 15.25 16.1334C15.25 16.1343 15.25 16.1352 15.25 16.1361C15.25 16.1369 15.25 16.1378 15.25 16.1387C15.25 16.1396 15.25 16.1405 15.25 16.1414C15.25 16.1423 15.25 16.1432 15.25 16.1442C15.25 16.1451 15.25 16.146 15.25 16.1469C15.25 16.1479 15.25 16.1488 15.25 16.1497C15.25 16.1507 15.25 16.1516 15.25 16.1526C15.25 16.1535 15.25 16.1545 15.25 16.1555C15.25 16.1564 15.25 16.1574 15.25 16.1584C15.25 16.1594 15.25 16.1603 15.25 16.1613C15.25 16.1623 15.25 16.1633 15.25 16.1643C15.25 16.1653 15.25 16.1663 15.25 16.1673C15.25 16.1684 15.25 16.1694 15.25 16.1704C15.25 16.1714 15.25 16.1725 15.25 16.1735C15.25 16.1745 15.25 16.1756 15.25 16.1766C15.25 16.1777 15.25 16.1787 15.25 16.1798C15.25 16.1809 15.25 16.1819 15.25 16.183C15.25 16.1841 15.25 16.1852 15.25 16.1863C15.25 16.1874 15.25 16.1885 15.25 16.1896C15.25 16.1907 15.25 16.1918 15.25 16.1929C15.25 16.194 15.25 16.1951 15.25 16.1962C15.25 16.1974 15.25 16.1985 15.25 16.1997C15.25 16.2008 15.25 16.2019 15.25 16.2031C15.25 16.2042 15.25 16.2054 15.25 16.2066C15.25 16.2077 15.25 16.2089 15.25 16.2101C15.25 16.2113 15.25 16.2125 15.25 16.2137C15.25 16.2149 15.25 16.2161 15.25 16.2173C15.25 16.2185 15.25 16.2197 15.25 16.2209C15.25 16.2221 15.25 16.2233 15.25 16.2246C15.25 16.2258 15.25 16.2271 15.25 16.2283C15.25 16.2296 15.25 16.2308 15.25 16.2321C15.25 16.2333 15.25 16.2346 15.25 16.2359C15.25 16.2371 15.25 16.2384 15.25 16.2397C15.25 16.241 15.25 16.2423 15.25 16.2436C15.25 16.2449 15.25 16.2462 15.25 16.2475C15.25 16.2488 15.25 16.2502 15.25 16.2515C15.25 16.2528 15.25 16.2542 15.25 16.2555C15.25 16.2569 15.25 16.2582 15.25 16.2596C15.25 16.2609 15.25 16.2623 15.25 16.2637C15.25 16.265 15.25 16.2664 15.25 16.2678C15.25 16.2692 15.25 16.2706 15.25 16.272C15.25 16.2734 15.25 16.2748 15.25 16.2762C15.25 16.2776 15.25 16.2791 15.25 16.2805C15.25 16.2819 15.25 16.2834 15.25 16.2848C15.25 16.2863 15.25 16.2877 15.25 16.2892C15.25 16.2906 15.25 16.2921 15.25 16.2936C15.25 16.2951 15.25 16.2965 15.25 16.298C15.25 16.2995 15.25 16.301 15.25 16.3025C15.25 16.304 15.25 16.3055 15.25 16.3071C15.25 16.3086 15.25 16.3101 15.25 16.3116C15.25 16.3132 15.25 16.3147 15.25 16.3163C15.25 16.3178 15.25 16.3194 15.25 16.3209C15.25 16.3225 15.25 16.3241 15.25 16.3257C15.25 16.3272 15.25 16.3288 15.25 16.3304C15.25 16.332 15.25 16.3336 15.25 16.3352C15.25 16.3368 15.25 16.3385 15.25 16.3401C15.25 16.3417 15.25 16.3434 15.25 16.345C15.25 16.3466 15.25 16.3483 15.25 16.35C15.25 16.3516 15.25 16.3533 15.25 16.355C15.25 16.3566 15.25 16.3583 15.25 16.36C15.25 16.3617 15.25 16.3634 15.25 16.3651C15.25 16.3668 15.25 16.3685 15.25 16.3702C15.25 16.372 15.25 16.3737 15.25 16.3754C15.25 16.3772 15.25 16.3789 15.25 16.3807C15.25 16.3824 15.25 16.3842 15.25 16.3859C15.25 16.3877 15.25 16.3895 15.25 16.3913C15.25 16.3931 15.25 16.3949 15.25 16.3967C15.25 16.3985 15.25 16.4003 15.25 16.4021C15.25 16.4039 15.25 16.4057 15.25 16.4076C15.25 16.4094 15.25 16.4113 15.25 16.4131C15.25 16.415 15.25 16.4168 15.25 16.4187C15.25 16.4206 15.25 16.4224 15.25 16.4243C15.25 16.4262 15.25 16.4281 15.25 16.43C15.25 16.4319 15.25 16.4338 15.25 16.4358C15.25 16.4377 15.25 16.4396 15.25 16.4415C15.25 16.4435 15.25 16.4454 15.25 16.4474C15.25 16.4493 15.25 16.4513 15.25 16.4533C15.25 16.4552 15.25 16.4572 15.25 16.4592C15.25 16.4612 15.25 16.4632 15.25 16.4652C15.25 16.4672 15.25 16.4692 15.25 16.4712C15.25 16.4732 15.25 16.4753 15.25 16.4773C15.25 16.4794 15.25 16.4814 15.25 16.4835C15.25 16.4855 15.25 16.4876 15.25 16.4897C15.25 16.4917 15.25 16.4938 15.25 16.4959C15.25 16.498 15.25 16.5001 15.25 16.5022C15.25 16.5043 15.25 16.5064 15.25 16.5086C15.25 16.5107 15.25 16.5128 15.25 16.515C15.25 16.5171 15.25 16.5193 15.25 16.5214C15.25 16.5236 15.25 16.5258 15.25 16.528C15.25 16.5301 15.25 16.5323 15.25 16.5345C15.25 16.5367 15.25 16.5389 15.25 16.5412C15.25 16.5434 15.25 16.5456 15.25 16.5478C15.25 16.5501 15.25 16.5523 15.25 16.5546C15.25 16.5568 15.25 16.5591 15.25 16.5614C15.25 16.5636 15.25 16.5659 15.25 16.5682C15.25 16.5705 15.25 16.5728 15.25 16.5751C15.25 16.5774 15.25 16.5797 15.25 16.5821C15.25 16.5844 15.25 16.5867 15.25 16.5891C15.25 16.5914 15.25 16.5938 15.25 16.5962C15.25 16.5985 15.25 16.6009 15.25 16.6033C15.25 16.6057 15.25 16.6081 15.25 16.6105C15.25 16.6129 15.25 16.6153 15.25 16.6177C15.25 16.6201 15.25 16.6226 15.25 16.625C15.25 16.6274 15.25 16.6299 15.25 16.6324C15.25 16.6348 15.25 16.6373 15.25 16.6398C15.25 16.6422 15.25 16.6447 15.25 16.6472C15.25 16.6497 15.25 16.6522 15.25 16.6548C15.25 16.6573 15.25 16.6598 15.25 16.6623C15.25 16.6649 15.25 16.6674 15.25 16.67C15.25 16.6725 15.25 16.6751 15.25 16.6777C15.25 16.6803 15.25 16.6828 15.25 16.6854C15.25 16.688 15.25 16.6906 15.25 16.6933C15.25 16.6959 15.25 16.6985 15.25 16.7011C15.25 16.7038 15.25 16.7064 15.25 16.7091C15.25 16.7117 15.25 16.7144 15.25 16.7171C15.25 16.7198 15.25 16.7224 15.25 16.7251C15.25 16.7278 15.25 16.7305 15.25 16.7332C15.25 16.736 15.25 16.7387 15.25 16.7414C15.25 16.7442 15.25 16.7469 15.25 16.7497C15.25 16.7524 15.25 16.7552 15.25 16.758C15.25 16.7607 15.25 16.7635 15.25 16.7663C15.25 16.7691 15.25 16.7719 15.25 16.7747C15.25 16.7776 15.25 16.7804 15.25 16.7832C15.25 16.7861 15.25 16.7889 15.25 16.7918C15.25 16.7946 15.25 16.7975 15.25 16.8004C15.25 16.8033 15.25 16.8061 15.25 16.809C15.25 16.8119 15.25 16.8149 15.25 16.8178C15.25 16.8207 15.25 16.8236 15.25 16.8266C15.25 16.8295 15.25 16.8325 15.25 16.8354C15.25 16.8384 15.25 16.8414 15.25 16.8443C15.25 16.8473 15.25 16.8503 15.25 16.8533C15.25 16.8563 15.25 16.8593 15.25 16.8624C15.25 16.8654 15.25 16.8684 15.25 16.8715C15.25 16.8745 15.25 16.8776 15.25 16.8807C15.25 16.8837 15.25 16.8868 15.25 16.8899C15.25 16.893 15.25 16.8961 15.25 16.8992C15.25 16.9023 15.25 16.9054 15.25 16.9086C15.25 16.9117 15.25 16.9148 15.25 16.918C15.25 16.9211 15.25 16.9243 15.25 16.9275C15.25 16.9307 15.25 16.9339 15.25 16.9371C15.25 16.9402 15.25 16.9435 15.25 16.9467C15.25 16.9499 15.25 16.9531 15.25 16.9564C15.25 16.9596 15.25 16.9629 15.25 16.9661C15.25 16.9694 15.25 16.9727 15.25 16.976C15.25 16.9792 15.25 16.9825 15.25 16.9858C15.25 16.9892 15.25 16.9925 15.25 16.9958C15.25 16.9991 15.25 17.0025 15.25 17.0058C15.25 17.0092 15.25 17.0125 15.25 17.0159C15.25 17.0193 15.25 17.0227 15.25 17.0261C15.25 17.0295 15.25 17.0329 15.25 17.0363C15.25 17.0397 15.25 17.0432 15.25 17.0466C15.25 17.05 15.25 17.0535 15.25 17.057C15.25 17.0604 15.25 17.0639 15.25 17.0674C15.25 17.0709 15.25 17.0744 15.25 17.0779C15.25 17.0814 15.25 17.0849 15.25 17.0885C15.25 17.092 15.25 17.0955 15.25 17.0991C15.25 17.1027 15.25 17.1062 15.25 17.1098C15.25 17.1134 15.25 17.117 15.25 17.1206C15.25 17.1242 15.25 17.1278 15.25 17.1314C15.25 17.135 15.25 17.1387 15.25 17.1423C15.25 17.146 15.25 17.1496 15.25 17.1533C15.25 17.157 15.25 17.1607 15.25 17.1644C15.25 17.1681 15.25 17.1718 15.25 17.1755C15.25 17.1792 15.25 17.1829 15.25 17.1867C15.25 17.1904 15.25 17.1942 15.25 17.198C15.25 17.2017 15.25 17.2055 15.25 17.2093C15.25 17.2131 15.25 17.2169 15.25 17.2207C15.25 17.2245 15.25 17.2283 15.25 17.2322C15.25 17.236 15.25 17.2399 15.25 17.2437C15.25 17.2476 15.25 17.2515 15.25 17.2554C15.25 17.2592 15.25 17.2631 15.25 17.2671C15.25 17.271 15.25 17.2749 15.25 17.2788C15.25 17.2828 15.25 17.2867 15.25 17.2907C15.25 17.2946 15.25 17.2986 15.25 17.3026C15.25 17.3066 15.25 17.3106 15.25 17.3146C15.25 17.3186 15.25 17.3226 15.25 17.3266C15.25 17.3307 15.25 17.3347 15.25 17.3388C15.25 17.3428 15.25 17.3469 15.25 17.351C15.25 17.355 15.25 17.3591 15.25 17.3632C15.25 17.3674 15.25 17.3715 15.25 17.3756C15.25 17.3797 15.25 17.3839 15.25 17.388C15.25 17.3922 15.25 17.3964 15.25 17.4005C15.25 17.4047 15.25 17.4089 15.25 17.4131C15.25 17.4173 15.25 17.4215 15.25 17.4258C15.25 17.43 15.25 17.4342 15.25 17.4385C15.25 17.4428 15.25 17.447 15.25 17.4513C15.25 17.4556 15.25 17.4599 15.25 17.4642C15.25 17.4685 15.25 17.4728 15.25 17.4771C15.25 17.4815 15.25 17.4858 15.25 17.4902C15.25 17.4945 15.25 17.4989 15.25 17.5033C15.25 17.5077 15.25 17.5121 15.25 17.5165C15.25 17.5209 15.25 17.5253 15.25 17.5297C15.25 17.5342 15.25 17.5386 15.25 17.5431C15.25 17.5475 15.25 17.552 15.25 17.5565C15.25 17.561 15.25 17.5655 15.25 17.57C15.25 17.5745 15.25 17.579 15.25 17.5836C15.25 17.5881 15.25 17.5927 15.25 17.5972C15.25 17.6018 15.25 17.6064 15.25 17.6109C15.25 17.6155 15.25 17.6201 15.25 17.6248C15.25 17.6294 15.25 17.634 15.25 17.6386C15.25 17.6433 15.25 17.6479 15.25 17.6526C15.25 17.6573 15.25 17.662 15.25 17.6667C15.25 17.6713 15.25 17.6761 15.25 17.6808C15.25 17.6855 15.25 17.6902 15.25 17.695C15.25 17.6997 15.25 17.7045 15.25 17.7093C15.25 17.714 15.25 17.7188 15.25 17.7236C15.25 17.7284 15.25 17.7332 15.25 17.7381C15.25 17.7429 15.25 17.7477 15.25 17.7526C15.25 17.7575 15.25 17.7623 15.25 17.7672C15.25 17.7721 15.25 17.777 15.25 17.7819C15.25 17.7868 15.25 17.7917 15.25 17.7967C15.25 17.8016 15.25 17.8065 15.25 17.8115C15.25 17.8165 15.25 17.8214 15.25 17.8264C15.25 17.8314 15.25 17.8364 15.25 17.8414C15.25 17.8465 15.25 17.8515 15.25 17.8565C15.25 17.8616 15.25 17.8666 15.25 17.8717C15.25 17.8768 15.25 17.8819 15.25 17.887C15.25 17.8921 15.25 17.8972 15.25 17.9023C15.25 17.9074 15.25 17.9126 15.25 17.9177C15.25 17.9229 15.25 17.9281 15.25 17.9332C15.25 17.9384 15.25 17.9436 15.25 17.9488C15.25 17.954 15.25 17.9593 15.25 17.9645C15.25 17.9697 15.25 17.975 15.25 17.9803C15.25 17.9855 15.25 17.9908 15.25 17.9961C15.25 18.0014 15.25 18.0067 15.25 18.012C15.25 18.0174 15.25 18.0227 15.25 18.028C15.25 18.0334 15.25 18.0388 15.25 18.0441C15.25 18.0495 15.25 18.0549 15.25 18.0603C15.25 18.0657 15.25 18.0712 15.25 18.0766C15.25 18.082 15.25 18.0875 15.25 18.0929C15.25 18.0984 15.25 18.1039 15.25 18.1094C15.25 18.1149 15.25 18.1204 15.25 18.1259C15.25 18.1314 15.25 18.137 15.25 18.1425C15.25 18.1481 15.25 18.1536 15.25 18.1592C15.25 18.1648 15.25 18.1704 15.25 18.176C15.25 18.1816 15.25 18.1872 15.25 18.1929C15.25 18.1985 15.25 18.2041 15.25 18.2098C15.25 18.2155 15.25 18.2212 15.25 18.2268C15.25 18.2325 15.25 18.2383 15.25 18.244C15.25 18.2497 15.25 18.2554 15.25 18.2612C15.25 18.2669 15.25 18.2727 15.25 18.2785C15.25 18.2843 15.25 18.2901 15.25 18.2959C15.25 18.3017 15.25 18.3075 15.25 18.3134C15.25 18.3192 15.25 18.3251 15.25 18.3309C15.25 18.3368 15.25 18.3427 15.25 18.3486C15.25 18.3545 15.25 18.3604 15.25 18.3663C15.25 18.3723 15.25 18.3782 15.25 18.3842C15.25 18.3901 15.25 18.3961 15.25 18.4021C15.25 18.4081 15.25 18.4141 15.25 18.4201C15.25 18.4261 15.25 18.4322 15.25 18.4382C15.25 18.4443 15.25 18.4503 15.25 18.4564C15.25 18.4625 15.25 18.4686 15.25 18.4747C15.25 18.4808 15.25 18.487 15.25 18.4931C15.25 18.4992 15.25 18.5054 15.25 18.5116C15.25 18.5177 15.25 18.5239 15.25 18.5301C15.25 18.5363 15.25 18.5425 15.25 18.5488C15.25 18.555 15.25 18.5612 15.25 18.5675C15.25 18.5738 15.25 18.58 15.25 18.5863C15.25 18.5926 15.25 18.5989 15.25 18.6053C15.25 18.6116 15.25 18.6179 15.25 18.6243C15.25 18.6306 15.25 18.637 15.25 18.6434C15.25 18.6498 15.25 18.6562 15.25 18.6626C15.25 18.669 15.25 18.6754 15.25 18.6819C15.25 18.6883 15.25 18.6948 15.25 18.7013C15.25 18.7077 15.25 18.7142 15.25 18.7208C15.25 18.7273 15.25 18.7338 15.25 18.7403C15.25 18.7469 15.25 18.7534 15.25 18.76C15.25 18.7666 15.25 18.7732 15.25 18.7798C15.25 18.7864 15.25 18.793 15.25 18.7996C15.25 18.8062 15.25 18.8129 15.25 18.8196C15.25 18.8262 15.25 18.8329 15.25 18.8396C15.25 18.8463 15.25 18.853 15.25 18.8597C15.25 18.8665 15.25 18.8732 15.25 18.88C15.25 18.8867 15.25 18.8935 15.25 18.9003C15.25 18.9071 15.25 18.9139 15.25 18.9207C15.25 18.9276 15.25 18.9344 15.25 18.9413C15.25 18.9481 15.25 18.955 15.25 18.9619C15.25 18.9688 15.25 18.9757 15.25 18.9826C15.25 18.9895 15.25 18.9964 15.25 19.0034C15.25 19.0103 15.25 19.0173 15.25 19.0243C15.25 19.0313 15.25 19.0383 15.25 19.0453C15.25 19.0523 15.25 19.0593 15.25 19.0664C15.25 19.0734 15.25 19.0805 15.25 19.0876C15.25 19.0947 15.25 19.1018 15.25 19.1089C15.25 19.116 15.25 19.1231 15.25 19.1303C15.25 19.1374 15.25 19.1446 15.25 19.1518C15.25 19.1589 15.25 19.1661 15.25 19.1734C15.25 19.1806 15.25 19.1878 15.25 19.195C15.25 19.2023 15.25 19.2095 15.25 19.2168C15.25 19.2241 15.25 19.2314 15.25 19.2387C15.25 19.246 15.25 19.2533 15.25 19.2607C15.25 19.268 15.25 19.2754 15.25 19.2828C15.25 19.2901 15.25 19.2975 15.25 19.3049C15.25 19.3124 15.25 19.3198 15.25 19.3272C15.25 19.3347 15.25 19.3421 15.25 19.3496C15.25 19.3571 15.25 19.3646 15.25 19.3721C15.25 19.3796 15.25 19.3871 15.25 19.3947C15.25 19.4022 15.25 19.4098 15.25 19.4174C15.25 19.4249 15.25 19.4325 15.25 19.4401C15.25 19.4477 15.25 19.4554 15.25 19.463C15.25 19.4707 15.25 19.4783 15.25 19.486C15.25 19.4937 15.25 19.5014 15.25 19.5091C15.25 19.5168 15.25 19.5245 15.25 19.5323C15.25 19.54 15.25 19.5478 15.25 19.5556C15.25 19.5633 15.25 19.5711 15.25 19.579C15.25 19.5868 15.25 19.5946 15.25 19.6025C15.25 19.6103 15.25 19.6182 15.25 19.626C15.25 19.6339 15.25 19.6418 15.25 19.6497C15.25 19.6577 15.25 19.6656 15.25 19.6736C15.25 19.6815 15.25 19.6895 15.25 19.6975C15.25 19.7054 15.25 19.7134 15.25 19.7215C15.25 19.7295 15.25 19.7375 15.25 19.7456C15.25 19.7536 15.25 19.7617 15.25 19.7698C15.25 19.7779 15.25 19.786 15.25 19.7941C15.25 19.8022 15.25 19.8104 15.25 19.8185C15.25 19.8267 15.25 19.8349 15.25 19.8431C15.25 19.8513 15.25 19.8595 15.25 19.8677C15.25 19.8759 15.25 19.8842 15.25 19.8924C15.25 19.9007 15.25 19.909 15.25 19.9173C15.25 19.9256 15.25 19.9339 15.25 19.9422C15.25 19.9506 15.25 19.9589 15.25 19.9673C15.25 19.9757 15.25 19.9841 15.25 19.9925C15.25 20.0009 15.25 20.0093 15.25 20.0177C15.25 20.0262 15.25 20.0346 15.25 20.0431C15.25 20.0516 15.25 20.0601 15.25 20.0686C15.25 20.0771 15.25 20.0856 15.25 20.0942C15.25 20.1027 15.25 20.1113 15.25 20.1199C15.25 20.1285 15.25 20.1371 15.25 20.1457C15.25 20.1543 15.25 20.1629 15.25 20.1716C15.25 20.1802 15.25 20.1889 15.25 20.1976C15.25 20.2063 15.25 20.215 15.25 20.2237C15.25 20.2325 15.25 20.2412 15.25 20.25C15.25 20.2587 15.25 20.2675 15.25 20.2763C15.25 20.2851 15.25 20.2939 15.25 20.3028C15.25 20.3116 15.25 20.3204 15.25 20.3293C15.25 20.3382 15.25 20.3471 15.25 20.356C15.25 20.3649 15.25 20.3738 15.25 20.3828C15.25 20.3917 15.25 20.4007 15.25 20.4097C15.25 20.4186 15.25 20.4276 15.25 20.4367C15.25 20.4457 15.25 20.4547 15.25 20.4638C15.25 20.4728 15.25 20.4819 15.25 20.491C15.25 20.5001 15.25 20.5092 15.25 20.5183C15.25 20.5274 15.25 20.5366 15.25 20.5457C15.25 20.5549 15.25 20.5641 15.25 20.5733C15.25 20.5825 15.25 20.5917 15.25 20.601C15.25 20.6102 15.25 20.6195 15.25 20.6287C15.25 20.638 15.25 20.6473 15.25 20.6566C15.25 20.6659 15.25 20.6753 15.25 20.6846C15.25 20.694 15.25 20.7033 15.25 20.7127C15.25 20.7221 15.25 20.7315 15.25 20.7409C15.25 20.7504 15.25 20.7598 15.25 20.7693C15.25 20.7787 15.25 20.7882 15.25 20.7977C15.25 20.8072 15.25 20.8167 15.25 20.8263C15.25 20.8358 15.25 20.8454 15.25 20.8549C15.25 20.8645 15.25 20.8741 15.25 20.8837C15.25 20.8933 15.25 20.903 15.25 20.9126C15.25 20.9223 15.25 20.9319 15.25 20.9416C15.25 20.9513 15.25 20.961 15.25 20.9708C15.25 20.9805 15.25 20.9902 15.25 21H16.75C16.75 20.9902 16.75 20.9805 16.75 20.9708C16.75 20.961 16.75 20.9513 16.75 20.9416C16.75 20.9319 16.75 20.9223 16.75 20.9126C16.75 20.903 16.75 20.8933 16.75 20.8837C16.75 20.8741 16.75 20.8645 16.75 20.8549C16.75 20.8454 16.75 20.8358 16.75 20.8263C16.75 20.8167 16.75 20.8072 16.75 20.7977C16.75 20.7882 16.75 20.7787 16.75 20.7693C16.75 20.7598 16.75 20.7504 16.75 20.7409C16.75 20.7315 16.75 20.7221 16.75 20.7127C16.75 20.7033 16.75 20.694 16.75 20.6846C16.75 20.6753 16.75 20.6659 16.75 20.6566C16.75 20.6473 16.75 20.638 16.75 20.6287C16.75 20.6195 16.75 20.6102 16.75 20.601C16.75 20.5917 16.75 20.5825 16.75 20.5733C16.75 20.5641 16.75 20.5549 16.75 20.5457C16.75 20.5366 16.75 20.5274 16.75 20.5183C16.75 20.5092 16.75 20.5001 16.75 20.491C16.75 20.4819 16.75 20.4728 16.75 20.4638C16.75 20.4547 16.75 20.4457 16.75 20.4367C16.75 20.4276 16.75 20.4186 16.75 20.4097C16.75 20.4007 16.75 20.3917 16.75 20.3828C16.75 20.3738 16.75 20.3649 16.75 20.356C16.75 20.3471 16.75 20.3382 16.75 20.3293C16.75 20.3204 16.75 20.3116 16.75 20.3028C16.75 20.2939 16.75 20.2851 16.75 20.2763C16.75 20.2675 16.75 20.2587 16.75 20.25C16.75 20.2412 16.75 20.2325 16.75 20.2237C16.75 20.215 16.75 20.2063 16.75 20.1976C16.75 20.1889 16.75 20.1802 16.75 20.1716C16.75 20.1629 16.75 20.1543 16.75 20.1457C16.75 20.1371 16.75 20.1285 16.75 20.1199C16.75 20.1113 16.75 20.1027 16.75 20.0942C16.75 20.0856 16.75 20.0771 16.75 20.0686C16.75 20.0601 16.75 20.0516 16.75 20.0431C16.75 20.0346 16.75 20.0262 16.75 20.0177C16.75 20.0093 16.75 20.0009 16.75 19.9925C16.75 19.9841 16.75 19.9757 16.75 19.9673C16.75 19.9589 16.75 19.9506 16.75 19.9422C16.75 19.9339 16.75 19.9256 16.75 19.9173C16.75 19.909 16.75 19.9007 16.75 19.8924C16.75 19.8842 16.75 19.8759 16.75 19.8677C16.75 19.8595 16.75 19.8513 16.75 19.8431C16.75 19.8349 16.75 19.8267 16.75 19.8185C16.75 19.8104 16.75 19.8022 16.75 19.7941C16.75 19.786 16.75 19.7779 16.75 19.7698C16.75 19.7617 16.75 19.7536 16.75 19.7456C16.75 19.7375 16.75 19.7295 16.75 19.7215C16.75 19.7134 16.75 19.7054 16.75 19.6975C16.75 19.6895 16.75 19.6815 16.75 19.6736C16.75 19.6656 16.75 19.6577 16.75 19.6497C16.75 19.6418 16.75 19.6339 16.75 19.626C16.75 19.6182 16.75 19.6103 16.75 19.6025C16.75 19.5946 16.75 19.5868 16.75 19.579C16.75 19.5711 16.75 19.5633 16.75 19.5556C16.75 19.5478 16.75 19.54 16.75 19.5323C16.75 19.5245 16.75 19.5168 16.75 19.5091C16.75 19.5014 16.75 19.4937 16.75 19.486C16.75 19.4783 16.75 19.4707 16.75 19.463C16.75 19.4554 16.75 19.4477 16.75 19.4401C16.75 19.4325 16.75 19.4249 16.75 19.4174C16.75 19.4098 16.75 19.4022 16.75 19.3947C16.75 19.3871 16.75 19.3796 16.75 19.3721C16.75 19.3646 16.75 19.3571 16.75 19.3496C16.75 19.3421 16.75 19.3347 16.75 19.3272C16.75 19.3198 16.75 19.3124 16.75 19.3049C16.75 19.2975 16.75 19.2901 16.75 19.2828C16.75 19.2754 16.75 19.268 16.75 19.2607C16.75 19.2533 16.75 19.246 16.75 19.2387C16.75 19.2314 16.75 19.2241 16.75 19.2168C16.75 19.2095 16.75 19.2023 16.75 19.195C16.75 19.1878 16.75 19.1806 16.75 19.1734C16.75 19.1661 16.75 19.1589 16.75 19.1518C16.75 19.1446 16.75 19.1374 16.75 19.1303C16.75 19.1231 16.75 19.116 16.75 19.1089C16.75 19.1018 16.75 19.0947 16.75 19.0876C16.75 19.0805 16.75 19.0734 16.75 19.0664C16.75 19.0593 16.75 19.0523 16.75 19.0453C16.75 19.0383 16.75 19.0313 16.75 19.0243C16.75 19.0173 16.75 19.0103 16.75 19.0034C16.75 18.9964 16.75 18.9895 16.75 18.9826C16.75 18.9757 16.75 18.9688 16.75 18.9619C16.75 18.955 16.75 18.9481 16.75 18.9413C16.75 18.9344 16.75 18.9276 16.75 18.9207C16.75 18.9139 16.75 18.9071 16.75 18.9003C16.75 18.8935 16.75 18.8867 16.75 18.88C16.75 18.8732 16.75 18.8665 16.75 18.8597C16.75 18.853 16.75 18.8463 16.75 18.8396C16.75 18.8329 16.75 18.8262 16.75 18.8196C16.75 18.8129 16.75 18.8062 16.75 18.7996C16.75 18.793 16.75 18.7864 16.75 18.7798C16.75 18.7732 16.75 18.7666 16.75 18.76C16.75 18.7534 16.75 18.7469 16.75 18.7403C16.75 18.7338 16.75 18.7273 16.75 18.7208C16.75 18.7142 16.75 18.7077 16.75 18.7013C16.75 18.6948 16.75 18.6883 16.75 18.6819C16.75 18.6754 16.75 18.669 16.75 18.6626C16.75 18.6562 16.75 18.6498 16.75 18.6434C16.75 18.637 16.75 18.6306 16.75 18.6243C16.75 18.6179 16.75 18.6116 16.75 18.6053C16.75 18.5989 16.75 18.5926 16.75 18.5863C16.75 18.58 16.75 18.5738 16.75 18.5675C16.75 18.5612 16.75 18.555 16.75 18.5488C16.75 18.5425 16.75 18.5363 16.75 18.5301C16.75 18.5239 16.75 18.5177 16.75 18.5116C16.75 18.5054 16.75 18.4992 16.75 18.4931C16.75 18.487 16.75 18.4808 16.75 18.4747C16.75 18.4686 16.75 18.4625 16.75 18.4564C16.75 18.4503 16.75 18.4443 16.75 18.4382C16.75 18.4322 16.75 18.4261 16.75 18.4201C16.75 18.4141 16.75 18.4081 16.75 18.4021C16.75 18.3961 16.75 18.3901 16.75 18.3842C16.75 18.3782 16.75 18.3723 16.75 18.3663C16.75 18.3604 16.75 18.3545 16.75 18.3486C16.75 18.3427 16.75 18.3368 16.75 18.3309C16.75 18.3251 16.75 18.3192 16.75 18.3134C16.75 18.3075 16.75 18.3017 16.75 18.2959C16.75 18.2901 16.75 18.2843 16.75 18.2785C16.75 18.2727 16.75 18.2669 16.75 18.2612C16.75 18.2554 16.75 18.2497 16.75 18.244C16.75 18.2383 16.75 18.2325 16.75 18.2268C16.75 18.2212 16.75 18.2155 16.75 18.2098C16.75 18.2041 16.75 18.1985 16.75 18.1929C16.75 18.1872 16.75 18.1816 16.75 18.176C16.75 18.1704 16.75 18.1648 16.75 18.1592C16.75 18.1536 16.75 18.1481 16.75 18.1425C16.75 18.137 16.75 18.1314 16.75 18.1259C16.75 18.1204 16.75 18.1149 16.75 18.1094C16.75 18.1039 16.75 18.0984 16.75 18.0929C16.75 18.0875 16.75 18.082 16.75 18.0766C16.75 18.0712 16.75 18.0657 16.75 18.0603C16.75 18.0549 16.75 18.0495 16.75 18.0441C16.75 18.0388 16.75 18.0334 16.75 18.028C16.75 18.0227 16.75 18.0174 16.75 18.012C16.75 18.0067 16.75 18.0014 16.75 17.9961C16.75 17.9908 16.75 17.9855 16.75 17.9803C16.75 17.975 16.75 17.9697 16.75 17.9645C16.75 17.9593 16.75 17.954 16.75 17.9488C16.75 17.9436 16.75 17.9384 16.75 17.9332C16.75 17.9281 16.75 17.9229 16.75 17.9177C16.75 17.9126 16.75 17.9074 16.75 17.9023C16.75 17.8972 16.75 17.8921 16.75 17.887C16.75 17.8819 16.75 17.8768 16.75 17.8717C16.75 17.8666 16.75 17.8616 16.75 17.8565C16.75 17.8515 16.75 17.8465 16.75 17.8414C16.75 17.8364 16.75 17.8314 16.75 17.8264C16.75 17.8214 16.75 17.8165 16.75 17.8115C16.75 17.8065 16.75 17.8016 16.75 17.7967C16.75 17.7917 16.75 17.7868 16.75 17.7819C16.75 17.777 16.75 17.7721 16.75 17.7672C16.75 17.7623 16.75 17.7575 16.75 17.7526C16.75 17.7477 16.75 17.7429 16.75 17.7381C16.75 17.7332 16.75 17.7284 16.75 17.7236C16.75 17.7188 16.75 17.714 16.75 17.7093C16.75 17.7045 16.75 17.6997 16.75 17.695C16.75 17.6902 16.75 17.6855 16.75 17.6808C16.75 17.6761 16.75 17.6713 16.75 17.6667C16.75 17.662 16.75 17.6573 16.75 17.6526C16.75 17.6479 16.75 17.6433 16.75 17.6386C16.75 17.634 16.75 17.6294 16.75 17.6248C16.75 17.6201 16.75 17.6155 16.75 17.6109C16.75 17.6064 16.75 17.6018 16.75 17.5972C16.75 17.5927 16.75 17.5881 16.75 17.5836C16.75 17.579 16.75 17.5745 16.75 17.57C16.75 17.5655 16.75 17.561 16.75 17.5565C16.75 17.552 16.75 17.5475 16.75 17.5431C16.75 17.5386 16.75 17.5342 16.75 17.5297C16.75 17.5253 16.75 17.5209 16.75 17.5165C16.75 17.5121 16.75 17.5077 16.75 17.5033C16.75 17.4989 16.75 17.4945 16.75 17.4902C16.75 17.4858 16.75 17.4815 16.75 17.4771C16.75 17.4728 16.75 17.4685 16.75 17.4642C16.75 17.4599 16.75 17.4556 16.75 17.4513C16.75 17.447 16.75 17.4428 16.75 17.4385C16.75 17.4342 16.75 17.43 16.75 17.4258C16.75 17.4215 16.75 17.4173 16.75 17.4131C16.75 17.4089 16.75 17.4047 16.75 17.4005C16.75 17.3964 16.75 17.3922 16.75 17.388C16.75 17.3839 16.75 17.3797 16.75 17.3756C16.75 17.3715 16.75 17.3674 16.75 17.3632C16.75 17.3591 16.75 17.355 16.75 17.351C16.75 17.3469 16.75 17.3428 16.75 17.3388C16.75 17.3347 16.75 17.3307 16.75 17.3266C16.75 17.3226 16.75 17.3186 16.75 17.3146C16.75 17.3106 16.75 17.3066 16.75 17.3026C16.75 17.2986 16.75 17.2946 16.75 17.2907C16.75 17.2867 16.75 17.2828 16.75 17.2788C16.75 17.2749 16.75 17.271 16.75 17.2671C16.75 17.2631 16.75 17.2592 16.75 17.2554C16.75 17.2515 16.75 17.2476 16.75 17.2437C16.75 17.2399 16.75 17.236 16.75 17.2322C16.75 17.2283 16.75 17.2245 16.75 17.2207C16.75 17.2169 16.75 17.2131 16.75 17.2093C16.75 17.2055 16.75 17.2017 16.75 17.198C16.75 17.1942 16.75 17.1904 16.75 17.1867C16.75 17.1829 16.75 17.1792 16.75 17.1755C16.75 17.1718 16.75 17.1681 16.75 17.1644C16.75 17.1607 16.75 17.157 16.75 17.1533C16.75 17.1496 16.75 17.146 16.75 17.1423C16.75 17.1387 16.75 17.135 16.75 17.1314C16.75 17.1278 16.75 17.1242 16.75 17.1206C16.75 17.117 16.75 17.1134 16.75 17.1098C16.75 17.1062 16.75 17.1027 16.75 17.0991C16.75 17.0955 16.75 17.092 16.75 17.0885C16.75 17.0849 16.75 17.0814 16.75 17.0779C16.75 17.0744 16.75 17.0709 16.75 17.0674C16.75 17.0639 16.75 17.0604 16.75 17.057C16.75 17.0535 16.75 17.05 16.75 17.0466C16.75 17.0432 16.75 17.0397 16.75 17.0363C16.75 17.0329 16.75 17.0295 16.75 17.0261C16.75 17.0227 16.75 17.0193 16.75 17.0159C16.75 17.0125 16.75 17.0092 16.75 17.0058C16.75 17.0025 16.75 16.9991 16.75 16.9958C16.75 16.9925 16.75 16.9892 16.75 16.9858C16.75 16.9825 16.75 16.9792 16.75 16.976C16.75 16.9727 16.75 16.9694 16.75 16.9661C16.75 16.9629 16.75 16.9596 16.75 16.9564C16.75 16.9531 16.75 16.9499 16.75 16.9467C16.75 16.9435 16.75 16.9402 16.75 16.9371C16.75 16.9339 16.75 16.9307 16.75 16.9275C16.75 16.9243 16.75 16.9211 16.75 16.918C16.75 16.9148 16.75 16.9117 16.75 16.9086C16.75 16.9054 16.75 16.9023 16.75 16.8992C16.75 16.8961 16.75 16.893 16.75 16.8899C16.75 16.8868 16.75 16.8837 16.75 16.8807C16.75 16.8776 16.75 16.8745 16.75 16.8715C16.75 16.8684 16.75 16.8654 16.75 16.8624C16.75 16.8593 16.75 16.8563 16.75 16.8533C16.75 16.8503 16.75 16.8473 16.75 16.8443C16.75 16.8414 16.75 16.8384 16.75 16.8354C16.75 16.8325 16.75 16.8295 16.75 16.8266C16.75 16.8236 16.75 16.8207 16.75 16.8178C16.75 16.8149 16.75 16.8119 16.75 16.809C16.75 16.8061 16.75 16.8033 16.75 16.8004C16.75 16.7975 16.75 16.7946 16.75 16.7918C16.75 16.7889 16.75 16.7861 16.75 16.7832C16.75 16.7804 16.75 16.7776 16.75 16.7747C16.75 16.7719 16.75 16.7691 16.75 16.7663C16.75 16.7635 16.75 16.7607 16.75 16.758C16.75 16.7552 16.75 16.7524 16.75 16.7497C16.75 16.7469 16.75 16.7442 16.75 16.7414C16.75 16.7387 16.75 16.736 16.75 16.7332C16.75 16.7305 16.75 16.7278 16.75 16.7251C16.75 16.7224 16.75 16.7198 16.75 16.7171C16.75 16.7144 16.75 16.7117 16.75 16.7091C16.75 16.7064 16.75 16.7038 16.75 16.7011C16.75 16.6985 16.75 16.6959 16.75 16.6933C16.75 16.6906 16.75 16.688 16.75 16.6854C16.75 16.6828 16.75 16.6803 16.75 16.6777C16.75 16.6751 16.75 16.6725 16.75 16.67C16.75 16.6674 16.75 16.6649 16.75 16.6623C16.75 16.6598 16.75 16.6573 16.75 16.6548C16.75 16.6522 16.75 16.6497 16.75 16.6472C16.75 16.6447 16.75 16.6422 16.75 16.6398C16.75 16.6373 16.75 16.6348 16.75 16.6324C16.75 16.6299 16.75 16.6274 16.75 16.625C16.75 16.6226 16.75 16.6201 16.75 16.6177C16.75 16.6153 16.75 16.6129 16.75 16.6105C16.75 16.6081 16.75 16.6057 16.75 16.6033C16.75 16.6009 16.75 16.5985 16.75 16.5962C16.75 16.5938 16.75 16.5914 16.75 16.5891C16.75 16.5867 16.75 16.5844 16.75 16.5821C16.75 16.5797 16.75 16.5774 16.75 16.5751C16.75 16.5728 16.75 16.5705 16.75 16.5682C16.75 16.5659 16.75 16.5636 16.75 16.5614C16.75 16.5591 16.75 16.5568 16.75 16.5546C16.75 16.5523 16.75 16.5501 16.75 16.5478C16.75 16.5456 16.75 16.5434 16.75 16.5412C16.75 16.5389 16.75 16.5367 16.75 16.5345C16.75 16.5323 16.75 16.5301 16.75 16.528C16.75 16.5258 16.75 16.5236 16.75 16.5214C16.75 16.5193 16.75 16.5171 16.75 16.515C16.75 16.5128 16.75 16.5107 16.75 16.5086C16.75 16.5064 16.75 16.5043 16.75 16.5022C16.75 16.5001 16.75 16.498 16.75 16.4959C16.75 16.4938 16.75 16.4917 16.75 16.4897C16.75 16.4876 16.75 16.4855 16.75 16.4835C16.75 16.4814 16.75 16.4794 16.75 16.4773C16.75 16.4753 16.75 16.4732 16.75 16.4712C16.75 16.4692 16.75 16.4672 16.75 16.4652C16.75 16.4632 16.75 16.4612 16.75 16.4592C16.75 16.4572 16.75 16.4552 16.75 16.4533C16.75 16.4513 16.75 16.4493 16.75 16.4474C16.75 16.4454 16.75 16.4435 16.75 16.4415C16.75 16.4396 16.75 16.4377 16.75 16.4358C16.75 16.4338 16.75 16.4319 16.75 16.43C16.75 16.4281 16.75 16.4262 16.75 16.4243C16.75 16.4224 16.75 16.4206 16.75 16.4187C16.75 16.4168 16.75 16.415 16.75 16.4131C16.75 16.4113 16.75 16.4094 16.75 16.4076C16.75 16.4057 16.75 16.4039 16.75 16.4021C16.75 16.4003 16.75 16.3985 16.75 16.3967C16.75 16.3949 16.75 16.3931 16.75 16.3913C16.75 16.3895 16.75 16.3877 16.75 16.3859C16.75 16.3842 16.75 16.3824 16.75 16.3807C16.75 16.3789 16.75 16.3772 16.75 16.3754C16.75 16.3737 16.75 16.372 16.75 16.3702C16.75 16.3685 16.75 16.3668 16.75 16.3651C16.75 16.3634 16.75 16.3617 16.75 16.36C16.75 16.3583 16.75 16.3566 16.75 16.355C16.75 16.3533 16.75 16.3516 16.75 16.35C16.75 16.3483 16.75 16.3466 16.75 16.345C16.75 16.3434 16.75 16.3417 16.75 16.3401C16.75 16.3385 16.75 16.3368 16.75 16.3352C16.75 16.3336 16.75 16.332 16.75 16.3304C16.75 16.3288 16.75 16.3272 16.75 16.3257C16.75 16.3241 16.75 16.3225 16.75 16.3209C16.75 16.3194 16.75 16.3178 16.75 16.3163C16.75 16.3147 16.75 16.3132 16.75 16.3116C16.75 16.3101 16.75 16.3086 16.75 16.3071C16.75 16.3055 16.75 16.304 16.75 16.3025C16.75 16.301 16.75 16.2995 16.75 16.298C16.75 16.2965 16.75 16.2951 16.75 16.2936C16.75 16.2921 16.75 16.2906 16.75 16.2892C16.75 16.2877 16.75 16.2863 16.75 16.2848C16.75 16.2834 16.75 16.2819 16.75 16.2805C16.75 16.2791 16.75 16.2776 16.75 16.2762C16.75 16.2748 16.75 16.2734 16.75 16.272C16.75 16.2706 16.75 16.2692 16.75 16.2678C16.75 16.2664 16.75 16.265 16.75 16.2637C16.75 16.2623 16.75 16.2609 16.75 16.2596C16.75 16.2582 16.75 16.2569 16.75 16.2555C16.75 16.2542 16.75 16.2528 16.75 16.2515C16.75 16.2502 16.75 16.2488 16.75 16.2475C16.75 16.2462 16.75 16.2449 16.75 16.2436C16.75 16.2423 16.75 16.241 16.75 16.2397C16.75 16.2384 16.75 16.2371 16.75 16.2359C16.75 16.2346 16.75 16.2333 16.75 16.2321C16.75 16.2308 16.75 16.2296 16.75 16.2283C16.75 16.2271 16.75 16.2258 16.75 16.2246C16.75 16.2233 16.75 16.2221 16.75 16.2209C16.75 16.2197 16.75 16.2185 16.75 16.2173C16.75 16.2161 16.75 16.2149 16.75 16.2137C16.75 16.2125 16.75 16.2113 16.75 16.2101C16.75 16.2089 16.75 16.2077 16.75 16.2066C16.75 16.2054 16.75 16.2042 16.75 16.2031C16.75 16.2019 16.75 16.2008 16.75 16.1997C16.75 16.1985 16.75 16.1974 16.75 16.1962C16.75 16.1951 16.75 16.194 16.75 16.1929C16.75 16.1918 16.75 16.1907 16.75 16.1896C16.75 16.1885 16.75 16.1874 16.75 16.1863C16.75 16.1852 16.75 16.1841 16.75 16.183C16.75 16.1819 16.75 16.1809 16.75 16.1798C16.75 16.1787 16.75 16.1777 16.75 16.1766C16.75 16.1756 16.75 16.1745 16.75 16.1735C16.75 16.1725 16.75 16.1714 16.75 16.1704C16.75 16.1694 16.75 16.1684 16.75 16.1673C16.75 16.1663 16.75 16.1653 16.75 16.1643C16.75 16.1633 16.75 16.1623 16.75 16.1613C16.75 16.1603 16.75 16.1594 16.75 16.1584C16.75 16.1574 16.75 16.1564 16.75 16.1555C16.75 16.1545 16.75 16.1535 16.75 16.1526C16.75 16.1516 16.75 16.1507 16.75 16.1497C16.75 16.1488 16.75 16.1479 16.75 16.1469C16.75 16.146 16.75 16.1451 16.75 16.1442C16.75 16.1432 16.75 16.1423 16.75 16.1414C16.75 16.1405 16.75 16.1396 16.75 16.1387C16.75 16.1378 16.75 16.1369 16.75 16.1361C16.75 16.1352 16.75 16.1343 16.75 16.1334C16.75 16.1326 16.75 16.1317 16.75 16.1308C16.75 16.13 16.75 16.1291 16.75 16.1283C16.75 16.1274 16.75 16.1266 16.75 16.1257C16.75 16.1249 16.75 16.1241 16.75 16.1232C16.75 16.1224 16.75 16.1216 16.75 16.1208C16.75 16.12 16.75 16.1191 16.75 16.1183C16.75 16.1175 16.75 16.1167 16.75 16.1159C16.75 16.1151 16.75 16.1144 16.75 16.1136C16.75 16.1128 16.75 16.112 16.75 16.1112C16.75 16.1105 16.75 16.1097 16.75 16.1089C16.75 16.1082 16.75 16.1074 16.75 16.1067C16.75 16.1059 16.75 16.1052 16.75 16.1044C16.75 16.1037 16.75 16.103 16.75 16.1022C16.75 16.1015 16.75 16.1008 16.75 16.1C16.75 16.0993 16.75 16.0986 16.75 16.0979C16.75 16.0972 16.75 16.0965 16.75 16.0958C16.75 16.0951 16.75 16.0944 16.75 16.0937C16.75 16.093 16.75 16.0923 16.75 16.0917C16.75 16.091 16.75 16.0903 16.75 16.0896C16.75 16.089 16.75 16.0883 16.75 16.0876C16.75 16.087 16.75 16.0863 16.75 16.0857C16.75 16.085 16.75 16.0844 16.75 16.0837C16.75 16.0831 16.75 16.0825 16.75 16.0818C16.75 16.0812 16.75 16.0806 16.75 16.08C16.75 16.0794 16.75 16.0787 16.75 16.0781C16.75 16.0775 16.75 16.0769 16.75 16.0763C16.75 16.0757 16.75 16.0751 16.75 16.0745C16.75 16.0739 16.75 16.0733 16.75 16.0728C16.75 16.0722 16.75 16.0716 16.75 16.071C16.75 16.0705 16.75 16.0699 16.75 16.0693C16.75 16.0688 16.75 16.0682 16.75 16.0676C16.75 16.0671 16.75 16.0665 16.75 16.066C16.75 16.0655 16.75 16.0649 16.75 16.0644C16.75 16.0638 16.75 16.0633 16.75 16.0628C16.75 16.0622 16.75 16.0617 16.75 16.0612C16.75 16.0607 16.75 16.0602 16.75 16.0597C16.75 16.0592 16.75 16.0586 16.75 16.0581C16.75 16.0576 16.75 16.0571 16.75 16.0567C16.75 16.0562 16.75 16.0557 16.75 16.0552C16.75 16.0547 16.75 16.0542 16.75 16.0538C16.75 16.0533 16.75 16.0528 16.75 16.0523C16.75 16.0519 16.75 16.0514 16.75 16.0509C16.75 16.0505 16.75 16.05 16.75 16.0496C16.75 16.0491 16.75 16.0487 16.75 16.0482C16.75 16.0478 16.75 16.0474 16.75 16.0469C16.75 16.0465 16.75 16.0461 16.75 16.0456C16.75 16.0452 16.75 16.0448 16.75 16.0444C16.75 16.044 16.75 16.0435 16.75 16.0431C16.75 16.0427 16.75 16.0423 16.75 16.0419C16.75 16.0415 16.75 16.0411 16.75 16.0407C16.75 16.0403 16.75 16.0399 16.75 16.0395C16.75 16.0391 16.75 16.0388 16.75 16.0384C16.75 16.038 16.75 16.0376 16.75 16.0373C16.75 16.0369 16.75 16.0365 16.75 16.0361C16.75 16.0358 16.75 16.0354 16.75 16.0351C16.75 16.0347 16.75 16.0344 16.75 16.034C16.75 16.0336 16.75 16.0333 16.75 16.033C16.75 16.0326 16.75 16.0323 16.75 16.0319C16.75 16.0316 16.75 16.0313 16.75 16.0309C16.75 16.0306 16.75 16.0303 16.75 16.03C16.75 16.0296 16.75 16.0293 16.75 16.029C16.75 16.0287 16.75 16.0284 16.75 16.0281C16.75 16.0278 16.75 16.0275 16.75 16.0272C16.75 16.0269 16.75 16.0266 16.75 16.0263C16.75 16.026 16.75 16.0257 16.75 16.0254C16.75 16.0251 16.75 16.0248 16.75 16.0245C16.75 16.0242 16.75 16.024 16.75 16.0237C16.75 16.0234 16.75 16.0231 16.75 16.0229C16.75 16.0226 16.75 16.0223 16.75 16.0221C16.75 16.0218 16.75 16.0216 16.75 16.0213C16.75 16.021 16.75 16.0208 16.75 16.0205C16.75 16.0203 16.75 16.02 16.75 16.0198C16.75 16.0196 16.75 16.0193 16.75 16.0191C16.75 16.0188 16.75 16.0186 16.75 16.0184C16.75 16.0181 16.75 16.0179 16.75 16.0177C16.75 16.0175 16.75 16.0172 16.75 16.017C16.75 16.0168 16.75 16.0166 16.75 16.0164C16.75 16.0161 16.75 16.0159 16.75 16.0157C16.75 16.0155 16.75 16.0153 16.75 16.0151C16.75 16.0149 16.75 16.0147 16.75 16.0145C16.75 16.0143 16.75 16.0141 16.75 16.0139C16.75 16.0137 16.75 16.0135 16.75 16.0133C16.75 16.0131 16.75 16.013 16.75 16.0128C16.75 16.0126 16.75 16.0124 16.75 16.0122C16.75 16.0121 16.75 16.0119 16.75 16.0117C16.75 16.0115 16.75 16.0114 16.75 16.0112C16.75 16.011 16.75 16.0109 16.75 16.0107C16.75 16.0105 16.75 16.0104 16.75 16.0102C16.75 16.0101 16.75 16.0099 16.75 16.0098C16.75 16.0096 16.75 16.0095 16.75 16.0093C16.75 16.0092 16.75 16.009 16.75 16.0089C16.75 16.0087 16.75 16.0086 16.75 16.0085C16.75 16.0083 16.75 16.0082 16.75 16.008C16.75 16.0079 16.75 16.0078 16.75 16.0077C16.75 16.0075 16.75 16.0074 16.75 16.0073C16.75 16.0071 16.75 16.007 16.75 16.0069C16.75 16.0068 16.75 16.0067 16.75 16.0065C16.75 16.0064 16.75 16.0063 16.75 16.0062C16.75 16.0061 16.75 16.006 16.75 16.0059C16.75 16.0058 16.75 16.0057 16.75 16.0055C16.75 16.0054 16.75 16.0053 16.75 16.0052C16.75 16.0051 16.75 16.005 16.75 16.0049C16.75 16.0048 16.75 16.0047 16.75 16.0047C16.75 16.0046 16.75 16.0045 16.75 16.0044C16.75 16.0043 16.75 16.0042 16.75 16.0041C16.75 16.004 16.75 16.004 16.75 16.0039C16.75 16.0038 16.75 16.0037 16.75 16.0036C16.75 16.0035 16.75 16.0035 16.75 16.0034C16.75 16.0033 16.75 16.0032 16.75 16.0032C16.75 16.0031 16.75 16.003 16.75 16.003C16.75 16.0029 16.75 16.0028 16.75 16.0028C16.75 16.0027 16.75 16.0026 16.75 16.0026C16.75 16.0025 16.75 16.0024 16.75 16.0024C16.75 16.0023 16.75 16.0023 16.75 16.0022C16.75 16.0022 16.75 16.0021 16.75 16.002C16.75 16.002 16.75 16.0019 16.75 16.0019C16.75 16.0018 16.75 16.0018 16.75 16.0017C16.75 16.0017 16.75 16.0016 16.75 16.0016C16.75 16.0016 16.75 16.0015 16.75 16.0015C16.75 16.0014 16.75 16.0014 16.75 16.0013C16.75 16.0013 16.75 16.0013 16.75 16.0012C16.75 16.0012 16.75 16.0011 16.75 16.0011C16.75 16.0011 16.75 16.001 16.75 16.001C16.75 16.001 16.75 16.0009 16.75 16.0009C16.75 16.0009 16.75 16.0008 16.75 16.0008C16.75 16.0008 16.75 16.0008 16.75 16.0007C16.75 16.0007 16.75 16.0007 16.75 16.0007C16.75 16.0006 16.75 16.0006 16.75 16.0006C16.75 16.0006 16.75 16.0005 16.75 16.0005C16.75 16.0005 16.75 16.0005 16.75 16.0005C16.75 16.0004 16.75 16.0004 16.75 16.0004C16.75 16.0004 16.75 16.0004 16.75 16.0003C16.75 16.0003 16.75 16.0003 16.75 16.0003C16.75 16.0003 16.75 16.0003 16.75 16.0003C16.75 16.0002 16.75 16.0002 16.75 16.0002C16.75 16.0002 16.75 16.0002 16.75 16.0002C16.75 16.0002 16.75 16.0002 16.75 16.0002C16.75 16.0001 16.75 16.0001 16.75 16.0001C16.75 16.0001 16.75 16.0001 16.75 16.0001C16.75 16.0001 16.75 16.0001 16.75 16.0001C16.75 16.0001 16.75 16.0001 16.75 16.0001C16.75 16.0001 16.75 16.0001 16.75 16C16.75 16 16.75 16 16.75 16C16.75 16 16.75 16 16.75 16C16.75 16 16.75 16 16.75 16C16.75 16 16.75 16 16.75 16C16.75 16 16.75 16 16.75 16C16.75 16 16.75 16 16.75 16C16.75 16 16.75 16 16.75 16C16.75 16 16.75 16 16.75 16C16.75 16 16.75 16 16.75 16C16.75 16 16.75 16 16.75 16H16ZM16.75 16V11H15.25V16H16.75Z" fill="#222222"/>
</svg>
