<svg width="32" height="32" viewBox="0 0 32 32" fill="none" xmlns="http://www.w3.org/2000/svg">
<path fill-rule="evenodd" clip-rule="evenodd" d="M12.4588 23.0128C12.4676 24.2141 11.7507 25.302 10.6433 25.7678C9.53597 26.2337 8.25698 25.9853 7.4044 25.139C6.55182 24.2926 6.29412 23.0155 6.7518 21.9047C7.20948 20.794 8.2921 20.0692 9.49344 20.0691C10.277 20.0662 11.0297 20.3748 11.5858 20.9268C12.1419 21.4789 12.4559 22.2292 12.4588 23.0128V23.0128Z" stroke="#222222" stroke-width="2" stroke-linecap="round" stroke-linejoin="round"/>
<path fill-rule="evenodd" clip-rule="evenodd" d="M26.5867 23.0128C26.5955 24.2141 25.8786 25.302 24.7712 25.7678C23.6639 26.2337 22.3849 25.9853 21.5323 25.139C20.6797 24.2926 20.422 23.0155 20.8797 21.9047C21.3374 20.794 22.42 20.0692 23.6213 20.0691C24.4049 20.0662 25.1576 20.3748 25.7137 20.9268C26.2698 21.4789 26.5838 22.2292 26.5867 23.0128Z" stroke="#222222" stroke-width="2" stroke-linecap="round" stroke-linejoin="round"/>
<path d="M20.3081 24.0131C20.8604 24.0131 21.3081 23.5653 21.3081 23.0131C21.3081 22.4608 20.8604 22.0131 20.3081 22.0131V24.0131ZM12.4547 22.0131C11.9024 22.0131 11.4547 22.4608 11.4547 23.0131C11.4547 23.5653 11.9024 24.0131 12.4547 24.0131V22.0131ZM19.3081 23.0129C19.3081 23.5652 19.7558 24.0129 20.3081 24.0129C20.8604 24.0129 21.3081 23.5652 21.3081 23.0129H19.3081ZM21.3081 15.8812C21.3081 15.3289 20.8604 14.8812 20.3081 14.8812C19.7558 14.8812 19.3081 15.3289 19.3081 15.8812H21.3081ZM20.308 22.0131C19.7557 22.0131 19.308 22.4608 19.308 23.0131C19.308 23.5653 19.7557 24.0131 20.308 24.0131V22.0131ZM20.6546 24.0131C21.2069 24.0131 21.6546 23.5653 21.6546 23.0131C21.6546 22.4608 21.2069 22.0131 20.6546 22.0131V24.0131ZM26.5812 22.013C26.0289 22.0153 25.5831 22.4649 25.5855 23.0172C25.5878 23.5695 26.0375 24.0153 26.5897 24.0129L26.5812 22.013ZM29.7268 19.8431L30.7268 19.8384C30.7265 19.7794 30.7211 19.7206 30.7104 19.6626L29.7268 19.8431ZM29.9833 15.7007C29.8836 15.1575 29.3624 14.7979 28.8192 14.8976C28.276 14.9973 27.9165 15.5185 28.0161 16.0617L29.9833 15.7007ZM20.3068 8.54155C19.7545 8.54155 19.3068 8.98927 19.3068 9.54155C19.3068 10.0938 19.7545 10.5416 20.3068 10.5416V8.54155ZM25.2775 9.54155V10.5416C25.2841 10.5416 25.2907 10.5415 25.2972 10.5414L25.2775 9.54155ZM27.5268 10.4535L28.2373 9.74974V9.74974L27.5268 10.4535ZM28.4175 12.7114L27.4179 12.6822C27.4159 12.7523 27.4212 12.8226 27.4339 12.8916L28.4175 12.7114ZM28.0148 16.0614C28.1143 16.6047 28.6354 16.9643 29.1786 16.8648C29.7219 16.7652 30.0816 16.2442 29.982 15.7009L28.0148 16.0614ZM21.3053 9.54153C21.3053 8.98924 20.8576 8.54153 20.3053 8.54153C19.753 8.54153 19.3053 8.98924 19.3053 9.54153H21.3053ZM19.3053 15.8812C19.3053 16.4334 19.753 16.8812 20.3053 16.8812C20.8576 16.8812 21.3053 16.4334 21.3053 15.8812H19.3053ZM19.3054 9.5416C19.3054 10.0939 19.7531 10.5416 20.3054 10.5416C20.8577 10.5416 21.3054 10.0939 21.3054 9.5416H19.3054ZM20.3054 8.45837H21.3054L21.3054 8.45102L20.3054 8.45837ZM18.8268 7.00006V8.00008L18.8332 8.00004L18.8268 7.00006ZM5.48268 7.00006L5.47342 8.00006H5.48268V7.00006ZM4.43986 7.42077L3.7393 6.70718L3.7393 6.70718L4.43986 7.42077ZM4 8.45566L3 8.44648V8.45566H4ZM4 21.556H2.99996L3.00004 21.5652L4 21.556ZM4.43986 22.5909L5.14042 21.8773L5.14042 21.8773L4.43986 22.5909ZM5.48268 23.0116V22.0116L5.47342 22.0117L5.48268 23.0116ZM6.528 24.0116C7.08028 24.0116 7.528 23.5639 7.528 23.0116C7.528 22.4593 7.08028 22.0116 6.528 22.0116V24.0116ZM20.3082 14.8812C19.7559 14.8812 19.3082 15.3289 19.3082 15.8812C19.3082 16.4335 19.7559 16.8812 20.3082 16.8812V14.8812ZM29.0011 16.8812C29.5534 16.8812 30.0011 16.4335 30.0011 15.8812C30.0011 15.3289 29.5534 14.8812 29.0011 14.8812V16.8812ZM20.3081 22.0131H12.4547V24.0131H20.3081V22.0131ZM21.3081 23.0129V15.8812H19.3081V23.0129H21.3081ZM20.308 24.0131H20.6546V22.0131H20.308V24.0131ZM26.5897 24.0129C27.692 24.0082 28.7472 23.5657 29.5231 22.7828L28.1026 21.3749C27.7001 21.781 27.1529 22.0105 26.5812 22.013L26.5897 24.0129ZM29.5231 22.7828C30.299 21.9998 30.732 20.9407 30.7268 19.8384L28.7269 19.8479C28.7296 20.4195 28.505 20.9689 28.1026 21.3749L29.5231 22.7828ZM30.7104 19.6626L29.9833 15.7007L28.0161 16.0617L28.7433 20.0236L30.7104 19.6626ZM20.3068 10.5416H25.2775V8.54155H20.3068V10.5416ZM25.2972 10.5414C25.8666 10.5301 26.4156 10.7527 26.8164 11.1573L28.2373 9.74974C27.4513 8.95627 26.3744 8.51967 25.2577 8.54175L25.2972 10.5414ZM26.8164 11.1573C27.2171 11.5618 27.4346 12.113 27.4179 12.6822L29.4171 12.7406C29.4497 11.6242 29.0233 10.5432 28.2373 9.74974L26.8164 11.1573ZM27.4339 12.8916L28.0148 16.0614L29.982 15.7009L29.4011 12.5311L27.4339 12.8916ZM19.3053 9.54153V15.8812H21.3053V9.54153H19.3053ZM21.3054 9.5416V8.45837H19.3054V9.5416H21.3054ZM21.3054 8.45102C21.2953 7.08823 20.1831 5.99125 18.8203 6.00008L18.8332 8.00004C19.0922 7.99836 19.3035 8.20679 19.3054 8.46572L21.3054 8.45102ZM18.8268 6.00006H5.48268V8.00006H18.8268V6.00006ZM5.49194 6.00011C4.83707 5.99404 4.20662 6.24839 3.7393 6.70718L5.14042 8.13436C5.22921 8.04719 5.34899 7.99887 5.47342 8.00002L5.49194 6.00011ZM3.7393 6.70718C3.27197 7.16597 3.00605 7.79162 3.00004 8.44649L4.99996 8.46483C5.0011 8.34041 5.05162 8.22153 5.14042 8.13436L3.7393 6.70718ZM3 8.45566V21.556H5V8.45566H3ZM3.00004 21.5652C3.00605 22.2201 3.27197 22.8457 3.7393 23.3045L5.14042 21.8773C5.05162 21.7901 5.0011 21.6713 4.99996 21.5468L3.00004 21.5652ZM3.7393 23.3045C4.20662 23.7633 4.83707 24.0176 5.49194 24.0116L5.47342 22.0117C5.34899 22.0128 5.22921 21.9645 5.14042 21.8773L3.7393 23.3045ZM5.48268 24.0116H6.528V22.0116H5.48268V24.0116ZM20.3082 16.8812H29.0011V14.8812H20.3082V16.8812Z" fill="#222222"/>
</svg>
