<svg width="20" height="20" viewBox="0 0 20 20" fill="none" xmlns="http://www.w3.org/2000/svg">
<g clip-path="url(#clip0_810_29097)">
<path d="M16.12 14.1897C15.8931 14.7138 15.6246 15.1962 15.3135 15.6397C14.8895 16.2443 14.5422 16.6628 14.2747 16.8952C13.8599 17.2767 13.4154 17.472 12.9395 17.4832C12.5979 17.4832 12.1858 17.3859 11.7062 17.1887C11.225 16.9924 10.7828 16.8952 10.3785 16.8952C9.95443 16.8952 9.49963 16.9924 9.01317 17.1887C8.52596 17.3859 8.13347 17.4887 7.83339 17.4989C7.37701 17.5183 6.92212 17.3174 6.46806 16.8952C6.17826 16.6424 5.81577 16.2091 5.38152 15.5953C4.91561 14.9397 4.53257 14.1796 4.23248 13.3129C3.91111 12.3768 3.75 11.4704 3.75 10.5928C3.75 9.58756 3.96722 8.72055 4.40229 7.994C4.74423 7.41041 5.19912 6.95005 5.76845 6.6121C6.33779 6.27415 6.95295 6.10193 7.61543 6.09091C7.97792 6.09091 8.45328 6.20304 9.044 6.4234C9.63305 6.6445 10.0113 6.75663 10.1771 6.75663C10.3011 6.75663 10.7213 6.62552 11.4336 6.36414C12.1071 6.12174 12.6756 6.02138 13.1414 6.06091C14.4034 6.16276 15.3515 6.66024 15.982 7.55651C14.8533 8.24038 14.295 9.19822 14.3061 10.427C14.3163 11.3841 14.6635 12.1805 15.3459 12.8129C15.6552 13.1064 16.0005 13.3333 16.3848 13.4944C16.3015 13.736 16.2135 13.9675 16.12 14.1897V14.1897ZM13.2256 2.80027C13.2256 3.55044 12.9516 4.25087 12.4053 4.89919C11.746 5.6699 10.9487 6.11526 10.084 6.04499C10.0729 5.95499 10.0666 5.86027 10.0666 5.76073C10.0666 5.04057 10.3801 4.26985 10.9368 3.63969C11.2148 3.32062 11.5683 3.05533 11.997 2.84369C12.4247 2.63522 12.8293 2.51993 13.2099 2.50018C13.221 2.60047 13.2256 2.70076 13.2256 2.80026V2.80027Z" fill="white"/>
</g>
<defs>
<clipPath id="clip0_810_29097">
<rect width="15" height="15" fill="white" transform="translate(2.5 2.5)"/>
</clipPath>
</defs>
</svg>
