<svg width="20" height="20" viewBox="0 0 20 20" fill="none" xmlns="http://www.w3.org/2000/svg">
<path d="M5.47979 13.8131C5.28453 14.0084 5.28453 14.3249 5.47979 14.5202C5.67505 14.7155 5.99163 14.7155 6.1869 14.5202L5.47979 13.8131ZM10.3536 10.3535C10.5488 10.1583 10.5488 9.84169 10.3536 9.64643C10.1583 9.45116 9.84172 9.45116 9.64646 9.64643L10.3536 10.3535ZM9.64646 9.64643C9.4512 9.84169 9.4512 10.1583 9.64646 10.3535C9.84172 10.5488 10.1583 10.5488 10.3536 10.3535L9.64646 9.64643ZM14.5202 6.18687C14.7155 5.9916 14.7155 5.67502 14.5202 5.47976C14.325 5.2845 14.0084 5.2845 13.8131 5.47976L14.5202 6.18687ZM10.3536 9.64643C10.1583 9.45116 9.84172 9.45116 9.64646 9.64643C9.4512 9.84169 9.4512 10.1583 9.64646 10.3535L10.3536 9.64643ZM13.8131 14.5202C14.0084 14.7155 14.325 14.7155 14.5202 14.5202C14.7155 14.3249 14.7155 14.0084 14.5202 13.8131L13.8131 14.5202ZM9.64646 10.3535C9.84172 10.5488 10.1583 10.5488 10.3536 10.3535C10.5488 10.1583 10.5488 9.84169 10.3536 9.64643L9.64646 10.3535ZM6.1869 5.47976C5.99163 5.2845 5.67505 5.2845 5.47979 5.47976C5.28453 5.67502 5.28453 5.9916 5.47979 6.18687L6.1869 5.47976ZM6.1869 14.5202L10.3536 10.3535L9.64646 9.64643L5.47979 13.8131L6.1869 14.5202ZM10.3536 10.3535L14.5202 6.18687L13.8131 5.47976L9.64646 9.64643L10.3536 10.3535ZM9.64646 10.3535L13.8131 14.5202L14.5202 13.8131L10.3536 9.64643L9.64646 10.3535ZM10.3536 9.64643L6.1869 5.47976L5.47979 6.18687L9.64646 10.3535L10.3536 9.64643Z" fill="black"/>
</svg>
