<svg width="20" height="20" viewBox="0 0 20 20" fill="none" xmlns="http://www.w3.org/2000/svg">
<path fill-rule="evenodd" clip-rule="evenodd" d="M8.90833 6.54166C9.32783 5.9112 9.22239 5.06861 8.66048 4.56096C8.09856 4.0533 7.24962 4.03369 6.66486 4.51484C6.08009 4.996 5.93585 5.83282 6.32578 6.48198C6.71571 7.13115 7.52222 7.39688 8.22167 7.10666C8.50118 6.99003 8.74006 6.79348 8.90833 6.54166Z" stroke="#222222" stroke-linecap="round" stroke-linejoin="round"/>
<path fill-rule="evenodd" clip-rule="evenodd" d="M8.90833 15.1375C9.32783 14.507 9.22239 13.6644 8.66048 13.1568C8.09856 12.6491 7.24962 12.6295 6.66486 13.1107C6.08009 13.5918 5.93585 14.4286 6.32578 15.0778C6.71571 15.727 7.52222 15.9927 8.22167 15.7025C8.50118 15.5859 8.74006 15.3893 8.90833 15.1375V15.1375Z" stroke="#222222" stroke-linecap="round" stroke-linejoin="round"/>
<path fill-rule="evenodd" clip-rule="evenodd" d="M11.0916 10.8391C10.6721 10.2087 10.7776 9.36609 11.3395 8.85844C11.9014 8.35079 12.7503 8.33117 13.3351 8.81233C13.9199 9.29348 14.0641 10.1303 13.6742 10.7795C13.2843 11.4286 12.4778 11.6944 11.7783 11.4041C11.4988 11.2875 11.2599 11.091 11.0916 10.8391V10.8391Z" stroke="#222222" stroke-linecap="round" stroke-linejoin="round"/>
<path d="M9.16666 5.18835C8.89051 5.18835 8.66666 5.41221 8.66666 5.68835C8.66666 5.9645 8.89051 6.18835 9.16666 6.18835V5.18835ZM15.8333 6.18835C16.1095 6.18835 16.3333 5.9645 16.3333 5.68835C16.3333 5.41221 16.1095 5.18835 15.8333 5.18835V6.18835ZM6.10582 6.18835C6.38197 6.18835 6.60582 5.9645 6.60582 5.68835C6.60582 5.41221 6.38197 5.18835 6.10582 5.18835V6.18835ZM4.16666 5.18835C3.89051 5.18835 3.66666 5.41221 3.66666 5.68835C3.66666 5.9645 3.89051 6.18835 4.16666 6.18835V5.18835ZM9.16666 13.785C8.89051 13.785 8.66666 14.0089 8.66666 14.285C8.66666 14.5612 8.89051 14.785 9.16666 14.785V13.785ZM15.8333 14.785C16.1095 14.785 16.3333 14.5612 16.3333 14.285C16.3333 14.0089 16.1095 13.785 15.8333 13.785V14.785ZM6.10582 14.785C6.38197 14.785 6.60582 14.5612 6.60582 14.285C6.60582 14.0089 6.38197 13.785 6.10582 13.785V14.785ZM4.16666 13.785C3.89051 13.785 3.66666 14.0089 3.66666 14.285C3.66666 14.5612 3.89051 14.785 4.16666 14.785V13.785ZM10.8333 10.4867C11.1095 10.4867 11.3333 10.2628 11.3333 9.98669C11.3333 9.71054 11.1095 9.48669 10.8333 9.48669V10.4867ZM4.16666 9.48669C3.89051 9.48669 3.66666 9.71054 3.66666 9.98669C3.66666 10.2628 3.89051 10.4867 4.16666 10.4867V9.48669ZM13.8942 9.48669C13.618 9.48669 13.3942 9.71054 13.3942 9.98669C13.3942 10.2628 13.618 10.4867 13.8942 10.4867V9.48669ZM15.8333 10.4867C16.1095 10.4867 16.3333 10.2628 16.3333 9.98669C16.3333 9.71054 16.1095 9.48669 15.8333 9.48669V10.4867ZM9.16666 6.18835H15.8333V5.18835H9.16666V6.18835ZM6.10582 5.18835H4.16666V6.18835H6.10582V5.18835ZM9.16666 14.785H15.8333V13.785H9.16666V14.785ZM6.10582 13.785H4.16666V14.785H6.10582V13.785ZM10.8333 9.48669H4.16666V10.4867H10.8333V9.48669ZM13.8942 10.4867H15.8333V9.48669H13.8942V10.4867Z" fill="#222222"/>
</svg>
