<svg width="20" height="20" viewBox="0 0 20 20" fill="none" xmlns="http://www.w3.org/2000/svg">
<g clip-path="url(#clip0_810_29106)">
<path fill-rule="evenodd" clip-rule="evenodd" d="M12.8253 6.81957C12.1025 6.13024 11.138 5.75471 10.14 5.77015C8.3138 5.77015 6.76282 7.00218 6.20981 8.66118C5.91659 9.53055 5.91659 10.472 6.20981 11.3413H6.21238C6.76795 12.9978 8.31637 14.2298 10.1426 14.2298C11.0852 14.2298 11.8945 13.9887 12.5218 13.5628V13.5611C13.26 13.0724 13.7641 12.3033 13.921 11.434H10.14V8.73839H16.7426C16.8249 9.20651 16.8635 9.68492 16.8635 10.1608C16.8635 12.2898 16.1026 14.0899 14.7787 15.309L14.7801 15.3101C13.6201 16.3801 12.0279 17 10.14 17C7.49329 17 5.07293 15.5082 3.88462 13.1444C2.89179 11.1664 2.89179 8.83611 3.88463 6.85817C5.07294 4.49182 7.49329 2.99998 10.14 2.99998C11.8787 2.97941 13.5583 3.63272 14.8238 4.82104L12.8253 6.81957Z" fill="white"/>
</g>
<defs>
<clipPath id="clip0_810_29106">
<rect width="14" height="14" fill="white" transform="translate(3 3)"/>
</clipPath>
</defs>
</svg>
