<svg width="20" height="20" viewBox="0 0 20 20" fill="none" xmlns="http://www.w3.org/2000/svg">
<g clip-path="url(#clip0_810_29112)">
<path d="M16.8635 10.1613C16.8635 9.68543 16.8249 9.20702 16.7426 8.73889H10.14V11.4345H13.921C13.7641 12.3038 13.26 13.0729 12.5218 13.5616V15.3106H14.7775C16.1022 14.0915 16.8635 12.291 16.8635 10.1613Z" fill="#4285F4"/>
<path d="M10.14 17.0005C12.0279 17.0005 13.6201 16.3806 14.7801 15.3106L12.5243 13.5616C11.8967 13.9886 11.0865 14.2303 10.1426 14.2303C8.31637 14.2303 6.76796 12.9983 6.21238 11.3419H3.88462V13.1449C5.07294 15.5087 7.49329 17.0005 10.14 17.0005Z" fill="#34A853"/>
<path d="M6.20981 11.3418C5.91659 10.4725 5.91659 9.53107 6.20981 8.66169V6.85864H3.88463C2.89179 8.8366 2.89179 11.1669 3.88463 13.1449L6.20981 11.3418Z" fill="#FBBC04"/>
<path d="M10.14 5.77063C11.138 5.7552 12.1025 6.13073 12.8253 6.82006L14.8238 4.82153C13.5583 3.63321 11.8787 2.97989 10.14 3.00047C7.49329 3.00047 5.07294 4.4923 3.88462 6.85864L6.20981 8.66169C6.76281 7.00268 8.3138 5.77063 10.14 5.77063Z" fill="#EA4335"/>
</g>
<defs>
<clipPath id="clip0_810_29112">
<rect width="14" height="14" fill="white" transform="translate(3 3)"/>
</clipPath>
</defs>
</svg>
