<svg width="20" height="20" viewBox="0 0 20 20" fill="none" xmlns="http://www.w3.org/2000/svg">
<path d="M5.83337 9.24967C5.41916 9.24967 5.08337 9.58546 5.08337 9.99967C5.08337 10.4139 5.41916 10.7497 5.83337 10.7497V9.24967ZM10 10.7497C10.4143 10.7497 10.75 10.4139 10.75 9.99967C10.75 9.58546 10.4143 9.24967 10 9.24967V10.7497ZM10 9.24967C9.58583 9.24967 9.25004 9.58546 9.25004 9.99967C9.25004 10.4139 9.58583 10.7497 10 10.7497V9.24967ZM14.1667 10.7497C14.5809 10.7497 14.9167 10.4139 14.9167 9.99967C14.9167 9.58546 14.5809 9.24967 14.1667 9.24967V10.7497ZM10.75 9.99967C10.75 9.58546 10.4143 9.24967 10 9.24967C9.58583 9.24967 9.25004 9.58546 9.25004 9.99967H10.75ZM9.25004 14.1663C9.25004 14.5806 9.58583 14.9163 10 14.9163C10.4143 14.9163 10.75 14.5806 10.75 14.1663H9.25004ZM9.25004 9.99967C9.25004 10.4139 9.58583 10.7497 10 10.7497C10.4143 10.7497 10.75 10.4139 10.75 9.99967H9.25004ZM10.75 5.83301C10.75 5.41879 10.4143 5.08301 10 5.08301C9.58583 5.08301 9.25004 5.41879 9.25004 5.83301H10.75ZM5.83337 10.7497H10V9.24967H5.83337V10.7497ZM10 10.7497H14.1667V9.24967H10V10.7497ZM10 9.99967H9.25004C9.25004 9.99967 9.25004 9.99967 9.25004 9.99968C9.25004 9.99968 9.25004 9.99968 9.25004 9.99968C9.25004 9.99968 9.25004 9.99968 9.25004 9.99968C9.25004 9.99968 9.25004 9.99968 9.25004 9.99968C9.25004 9.99968 9.25004 9.99968 9.25004 9.99968C9.25004 9.99968 9.25004 9.99968 9.25004 9.99969C9.25004 9.99969 9.25004 9.99969 9.25004 9.99969C9.25004 9.99969 9.25004 9.99969 9.25004 9.9997C9.25004 9.9997 9.25004 9.9997 9.25004 9.99971C9.25004 9.99971 9.25004 9.99971 9.25004 9.99972C9.25004 9.99972 9.25004 9.99972 9.25004 9.99973C9.25004 9.99973 9.25004 9.99974 9.25004 9.99974C9.25004 9.99975 9.25004 9.99975 9.25004 9.99976C9.25004 9.99977 9.25004 9.99977 9.25004 9.99978C9.25004 9.99979 9.25004 9.99979 9.25004 9.9998C9.25004 9.99981 9.25004 9.99982 9.25004 9.99983C9.25004 9.99984 9.25004 9.99985 9.25004 9.99986C9.25004 9.99987 9.25004 9.99988 9.25004 9.99989C9.25004 9.9999 9.25004 9.99991 9.25004 9.99992C9.25004 9.99994 9.25004 9.99995 9.25004 9.99996C9.25004 9.99998 9.25004 9.99999 9.25004 10C9.25004 10 9.25004 10 9.25004 10.0001C9.25004 10.0001 9.25004 10.0001 9.25004 10.0001C9.25004 10.0001 9.25004 10.0001 9.25004 10.0002C9.25004 10.0002 9.25004 10.0002 9.25004 10.0002C9.25004 10.0002 9.25004 10.0003 9.25004 10.0003C9.25004 10.0003 9.25004 10.0003 9.25004 10.0004C9.25004 10.0004 9.25004 10.0004 9.25004 10.0004C9.25004 10.0005 9.25004 10.0005 9.25004 10.0005C9.25004 10.0005 9.25004 10.0006 9.25004 10.0006C9.25004 10.0006 9.25004 10.0007 9.25004 10.0007C9.25004 10.0007 9.25004 10.0008 9.25004 10.0008C9.25004 10.0008 9.25004 10.0009 9.25004 10.0009C9.25004 10.0009 9.25004 10.001 9.25004 10.001C9.25004 10.001 9.25004 10.0011 9.25004 10.0011C9.25004 10.0012 9.25004 10.0012 9.25004 10.0012C9.25004 10.0013 9.25004 10.0013 9.25004 10.0014C9.25004 10.0014 9.25004 10.0015 9.25004 10.0015C9.25004 10.0016 9.25004 10.0016 9.25004 10.0017C9.25004 10.0017 9.25004 10.0018 9.25004 10.0018C9.25004 10.0019 9.25004 10.0019 9.25004 10.002C9.25004 10.002 9.25004 10.0021 9.25004 10.0021C9.25004 10.0022 9.25004 10.0023 9.25004 10.0023C9.25004 10.0024 9.25004 10.0024 9.25004 10.0025C9.25004 10.0026 9.25004 10.0026 9.25004 10.0027C9.25004 10.0028 9.25004 10.0028 9.25004 10.0029C9.25004 10.003 9.25004 10.003 9.25004 10.0031C9.25004 10.0032 9.25004 10.0033 9.25004 10.0033C9.25004 10.0034 9.25004 10.0035 9.25004 10.0036C9.25004 10.0036 9.25004 10.0037 9.25004 10.0038C9.25004 10.0039 9.25004 10.004 9.25004 10.004C9.25004 10.0041 9.25004 10.0042 9.25004 10.0043C9.25004 10.0044 9.25004 10.0045 9.25004 10.0046C9.25004 10.0047 9.25004 10.0047 9.25004 10.0048C9.25004 10.0049 9.25004 10.005 9.25004 10.0051C9.25004 10.0052 9.25004 10.0053 9.25004 10.0054C9.25004 10.0055 9.25004 10.0056 9.25004 10.0057C9.25004 10.0058 9.25004 10.0059 9.25004 10.0061C9.25004 10.0062 9.25004 10.0063 9.25004 10.0064C9.25004 10.0065 9.25004 10.0066 9.25004 10.0067C9.25004 10.0068 9.25004 10.007 9.25004 10.0071C9.25004 10.0072 9.25004 10.0073 9.25004 10.0074C9.25004 10.0076 9.25004 10.0077 9.25004 10.0078C9.25004 10.0079 9.25004 10.0081 9.25004 10.0082C9.25004 10.0083 9.25004 10.0085 9.25004 10.0086C9.25004 10.0087 9.25004 10.0089 9.25004 10.009C9.25004 10.0092 9.25004 10.0093 9.25004 10.0094C9.25004 10.0096 9.25004 10.0097 9.25004 10.0099C9.25004 10.01 9.25004 10.0102 9.25004 10.0103C9.25004 10.0105 9.25004 10.0106 9.25004 10.0108C9.25004 10.0109 9.25004 10.0111 9.25004 10.0113C9.25004 10.0114 9.25004 10.0116 9.25004 10.0118C9.25004 10.0119 9.25004 10.0121 9.25004 10.0123C9.25004 10.0124 9.25004 10.0126 9.25004 10.0128C9.25004 10.0129 9.25004 10.0131 9.25004 10.0133C9.25004 10.0135 9.25004 10.0137 9.25004 10.0138C9.25004 10.014 9.25004 10.0142 9.25004 10.0144C9.25004 10.0146 9.25004 10.0148 9.25004 10.015C9.25004 10.0152 9.25004 10.0154 9.25004 10.0156C9.25004 10.0158 9.25004 10.016 9.25004 10.0162C9.25004 10.0164 9.25004 10.0166 9.25004 10.0168C9.25004 10.017 9.25004 10.0172 9.25004 10.0174C9.25004 10.0176 9.25004 10.0179 9.25004 10.0181C9.25004 10.0183 9.25004 10.0185 9.25004 10.0187C9.25004 10.019 9.25004 10.0192 9.25004 10.0194C9.25004 10.0196 9.25004 10.0199 9.25004 10.0201C9.25004 10.0204 9.25004 10.0206 9.25004 10.0208C9.25004 10.0211 9.25004 10.0213 9.25004 10.0216C9.25004 10.0218 9.25004 10.0221 9.25004 10.0223C9.25004 10.0226 9.25004 10.0228 9.25004 10.0231C9.25004 10.0233 9.25004 10.0236 9.25004 10.0238C9.25004 10.0241 9.25004 10.0244 9.25004 10.0246C9.25004 10.0249 9.25004 10.0252 9.25004 10.0255C9.25004 10.0257 9.25004 10.026 9.25004 10.0263C9.25004 10.0266 9.25004 10.0269 9.25004 10.0271C9.25004 10.0274 9.25004 10.0277 9.25004 10.028C9.25004 10.0283 9.25004 10.0286 9.25004 10.0289C9.25004 10.0292 9.25004 10.0295 9.25004 10.0298C9.25004 10.0301 9.25004 10.0304 9.25004 10.0307C9.25004 10.031 9.25004 10.0313 9.25004 10.0317C9.25004 10.032 9.25004 10.0323 9.25004 10.0326C9.25004 10.0329 9.25004 10.0333 9.25004 10.0336C9.25004 10.0339 9.25004 10.0343 9.25004 10.0346C9.25004 10.0349 9.25004 10.0353 9.25004 10.0356C9.25004 10.036 9.25004 10.0363 9.25004 10.0366C9.25004 10.037 9.25004 10.0373 9.25004 10.0377C9.25004 10.0381 9.25004 10.0384 9.25004 10.0388C9.25004 10.0391 9.25004 10.0395 9.25004 10.0399C9.25004 10.0402 9.25004 10.0406 9.25004 10.041C9.25004 10.0414 9.25004 10.0417 9.25004 10.0421C9.25004 10.0425 9.25004 10.0429 9.25004 10.0433C9.25004 10.0437 9.25004 10.0441 9.25004 10.0445C9.25004 10.0449 9.25004 10.0453 9.25004 10.0457C9.25004 10.0461 9.25004 10.0465 9.25004 10.0469C9.25004 10.0473 9.25004 10.0477 9.25004 10.0481C9.25004 10.0485 9.25004 10.049 9.25004 10.0494C9.25004 10.0498 9.25004 10.0502 9.25004 10.0507C9.25004 10.0511 9.25004 10.0515 9.25004 10.052C9.25004 10.0524 9.25004 10.0529 9.25004 10.0533C9.25004 10.0538 9.25004 10.0542 9.25004 10.0547C9.25004 10.0551 9.25004 10.0556 9.25004 10.056C9.25004 10.0565 9.25004 10.057 9.25004 10.0574C9.25004 10.0579 9.25004 10.0584 9.25004 10.0589C9.25004 10.0593 9.25004 10.0598 9.25004 10.0603C9.25004 10.0608 9.25004 10.0613 9.25004 10.0618C9.25004 10.0623 9.25004 10.0628 9.25004 10.0633C9.25004 10.0638 9.25004 10.0643 9.25004 10.0648C9.25004 10.0653 9.25004 10.0658 9.25004 10.0663C9.25004 10.0668 9.25004 10.0674 9.25004 10.0679C9.25004 10.0684 9.25004 10.0689 9.25004 10.0695C9.25004 10.07 9.25004 10.0705 9.25004 10.0711C9.25004 10.0716 9.25004 10.0722 9.25004 10.0727C9.25004 10.0733 9.25004 10.0738 9.25004 10.0744C9.25004 10.0749 9.25004 10.0755 9.25004 10.0761C9.25004 10.0766 9.25004 10.0772 9.25004 10.0778C9.25004 10.0783 9.25004 10.0789 9.25004 10.0795C9.25004 10.0801 9.25004 10.0807 9.25004 10.0813C9.25004 10.0819 9.25004 10.0824 9.25004 10.083C9.25004 10.0836 9.25004 10.0843 9.25004 10.0849C9.25004 10.0855 9.25004 10.0861 9.25004 10.0867C9.25004 10.0873 9.25004 10.0879 9.25004 10.0886C9.25004 10.0892 9.25004 10.0898 9.25004 10.0905C9.25004 10.0911 9.25004 10.0917 9.25004 10.0924C9.25004 10.093 9.25004 10.0937 9.25004 10.0943C9.25004 10.095 9.25004 10.0956 9.25004 10.0963C9.25004 10.097 9.25004 10.0976 9.25004 10.0983C9.25004 10.099 9.25004 10.0996 9.25004 10.1003C9.25004 10.101 9.25004 10.1017 9.25004 10.1024C9.25004 10.1031 9.25004 10.1038 9.25004 10.1044C9.25004 10.1051 9.25004 10.1059 9.25004 10.1066C9.25004 10.1073 9.25004 10.108 9.25004 10.1087C9.25004 10.1094 9.25004 10.1101 9.25004 10.1109C9.25004 10.1116 9.25004 10.1123 9.25004 10.1131C9.25004 10.1138 9.25004 10.1145 9.25004 10.1153C9.25004 10.116 9.25004 10.1168 9.25004 10.1175C9.25004 10.1183 9.25004 10.119 9.25004 10.1198C9.25004 10.1206 9.25004 10.1213 9.25004 10.1221C9.25004 10.1229 9.25004 10.1237 9.25004 10.1245C9.25004 10.1252 9.25004 10.126 9.25004 10.1268C9.25004 10.1276 9.25004 10.1284 9.25004 10.1292C9.25004 10.13 9.25004 10.1308 9.25004 10.1317C9.25004 10.1325 9.25004 10.1333 9.25004 10.1341C9.25004 10.1349 9.25004 10.1358 9.25004 10.1366C9.25004 10.1374 9.25004 10.1383 9.25004 10.1391C9.25004 10.14 9.25004 10.1408 9.25004 10.1417C9.25004 10.1425 9.25004 10.1434 9.25004 10.1443C9.25004 10.1451 9.25004 10.146 9.25004 10.1469C9.25004 10.1478 9.25004 10.1486 9.25004 10.1495C9.25004 10.1504 9.25004 10.1513 9.25004 10.1522C9.25004 10.1531 9.25004 10.154 9.25004 10.1549C9.25004 10.1558 9.25004 10.1567 9.25004 10.1576C9.25004 10.1586 9.25004 10.1595 9.25004 10.1604C9.25004 10.1613 9.25004 10.1623 9.25004 10.1632C9.25004 10.1642 9.25004 10.1651 9.25004 10.1661C9.25004 10.167 9.25004 10.168 9.25004 10.1689C9.25004 10.1699 9.25004 10.1708 9.25004 10.1718C9.25004 10.1728 9.25004 10.1738 9.25004 10.1748C9.25004 10.1757 9.25004 10.1767 9.25004 10.1777C9.25004 10.1787 9.25004 10.1797 9.25004 10.1807C9.25004 10.1817 9.25004 10.1827 9.25004 10.1838C9.25004 10.1848 9.25004 10.1858 9.25004 10.1868C9.25004 10.1879 9.25004 10.1889 9.25004 10.1899C9.25004 10.191 9.25004 10.192 9.25004 10.1931C9.25004 10.1941 9.25004 10.1952 9.25004 10.1962C9.25004 10.1973 9.25004 10.1984 9.25004 10.1994C9.25004 10.2005 9.25004 10.2016 9.25004 10.2027C9.25004 10.2038 9.25004 10.2049 9.25004 10.206C9.25004 10.207 9.25004 10.2082 9.25004 10.2093C9.25004 10.2104 9.25004 10.2115 9.25004 10.2126C9.25004 10.2137 9.25004 10.2149 9.25004 10.216C9.25004 10.2171 9.25004 10.2183 9.25004 10.2194C9.25004 10.2205 9.25004 10.2217 9.25004 10.2229C9.25004 10.224 9.25004 10.2252 9.25004 10.2263C9.25004 10.2275 9.25004 10.2287 9.25004 10.2299C9.25004 10.231 9.25004 10.2322 9.25004 10.2334C9.25004 10.2346 9.25004 10.2358 9.25004 10.237C9.25004 10.2382 9.25004 10.2394 9.25004 10.2407C9.25004 10.2419 9.25004 10.2431 9.25004 10.2443C9.25004 10.2456 9.25004 10.2468 9.25004 10.248C9.25004 10.2493 9.25004 10.2505 9.25004 10.2518C9.25004 10.253 9.25004 10.2543 9.25004 10.2556C9.25004 10.2568 9.25004 10.2581 9.25004 10.2594C9.25004 10.2607 9.25004 10.2619 9.25004 10.2632C9.25004 10.2645 9.25004 10.2658 9.25004 10.2671C9.25004 10.2684 9.25004 10.2697 9.25004 10.2711C9.25004 10.2724 9.25004 10.2737 9.25004 10.275C9.25004 10.2764 9.25004 10.2777 9.25004 10.279C9.25004 10.2804 9.25004 10.2817 9.25004 10.2831C9.25004 10.2844 9.25004 10.2858 9.25004 10.2872C9.25004 10.2885 9.25004 10.2899 9.25004 10.2913C9.25004 10.2927 9.25004 10.2941 9.25004 10.2955C9.25004 10.2969 9.25004 10.2983 9.25004 10.2997C9.25004 10.3011 9.25004 10.3025 9.25004 10.3039C9.25004 10.3053 9.25004 10.3068 9.25004 10.3082C9.25004 10.3096 9.25004 10.3111 9.25004 10.3125C9.25004 10.314 9.25004 10.3154 9.25004 10.3169C9.25004 10.3184 9.25004 10.3198 9.25004 10.3213C9.25004 10.3228 9.25004 10.3243 9.25004 10.3257C9.25004 10.3272 9.25004 10.3287 9.25004 10.3302C9.25004 10.3317 9.25004 10.3332 9.25004 10.3348C9.25004 10.3363 9.25004 10.3378 9.25004 10.3393C9.25004 10.3409 9.25004 10.3424 9.25004 10.3439C9.25004 10.3455 9.25004 10.347 9.25004 10.3486C9.25004 10.3502 9.25004 10.3517 9.25004 10.3533C9.25004 10.3549 9.25004 10.3564 9.25004 10.358C9.25004 10.3596 9.25004 10.3612 9.25004 10.3628C9.25004 10.3644 9.25004 10.366 9.25004 10.3676C9.25004 10.3692 9.25004 10.3709 9.25004 10.3725C9.25004 10.3741 9.25004 10.3757 9.25004 10.3774C9.25004 10.379 9.25004 10.3807 9.25004 10.3823C9.25004 10.384 9.25004 10.3857 9.25004 10.3873C9.25004 10.389 9.25004 10.3907 9.25004 10.3924C9.25004 10.394 9.25004 10.3957 9.25004 10.3974C9.25004 10.3991 9.25004 10.4008 9.25004 10.4026C9.25004 10.4043 9.25004 10.406 9.25004 10.4077C9.25004 10.4095 9.25004 10.4112 9.25004 10.4129C9.25004 10.4147 9.25004 10.4164 9.25004 10.4182C9.25004 10.4199 9.25004 10.4217 9.25004 10.4235C9.25004 10.4253 9.25004 10.427 9.25004 10.4288C9.25004 10.4306 9.25004 10.4324 9.25004 10.4342C9.25004 10.436 9.25004 10.4378 9.25004 10.4396C9.25004 10.4415 9.25004 10.4433 9.25004 10.4451C9.25004 10.447 9.25004 10.4488 9.25004 10.4506C9.25004 10.4525 9.25004 10.4543 9.25004 10.4562C9.25004 10.4581 9.25004 10.4599 9.25004 10.4618C9.25004 10.4637 9.25004 10.4656 9.25004 10.4675C9.25004 10.4694 9.25004 10.4713 9.25004 10.4732C9.25004 10.4751 9.25004 10.477 9.25004 10.4789C9.25004 10.4809 9.25004 10.4828 9.25004 10.4847C9.25004 10.4867 9.25004 10.4886 9.25004 10.4906C9.25004 10.4925 9.25004 10.4945 9.25004 10.4965C9.25004 10.4984 9.25004 10.5004 9.25004 10.5024C9.25004 10.5044 9.25004 10.5064 9.25004 10.5084C9.25004 10.5104 9.25004 10.5124 9.25004 10.5144C9.25004 10.5164 9.25004 10.5185 9.25004 10.5205C9.25004 10.5225 9.25004 10.5246 9.25004 10.5266C9.25004 10.5287 9.25004 10.5307 9.25004 10.5328C9.25004 10.5349 9.25004 10.537 9.25004 10.539C9.25004 10.5411 9.25004 10.5432 9.25004 10.5453C9.25004 10.5474 9.25004 10.5495 9.25004 10.5516C9.25004 10.5537 9.25004 10.5559 9.25004 10.558C9.25004 10.5601 9.25004 10.5623 9.25004 10.5644C9.25004 10.5666 9.25004 10.5687 9.25004 10.5709C9.25004 10.573 9.25004 10.5752 9.25004 10.5774C9.25004 10.5796 9.25004 10.5818 9.25004 10.584C9.25004 10.5862 9.25004 10.5884 9.25004 10.5906C9.25004 10.5928 9.25004 10.595 9.25004 10.5972C9.25004 10.5995 9.25004 10.6017 9.25004 10.604C9.25004 10.6062 9.25004 10.6085 9.25004 10.6107C9.25004 10.613 9.25004 10.6153 9.25004 10.6175C9.25004 10.6198 9.25004 10.6221 9.25004 10.6244C9.25004 10.6267 9.25004 10.629 9.25004 10.6313C9.25004 10.6336 9.25004 10.6359 9.25004 10.6383C9.25004 10.6406 9.25004 10.6429 9.25004 10.6453C9.25004 10.6476 9.25004 10.65 9.25004 10.6524C9.25004 10.6547 9.25004 10.6571 9.25004 10.6595C9.25004 10.6619 9.25004 10.6643 9.25004 10.6667C9.25004 10.6691 9.25004 10.6715 9.25004 10.6739C9.25004 10.6763 9.25004 10.6787 9.25004 10.6812C9.25004 10.6836 9.25004 10.686 9.25004 10.6885C9.25004 10.6909 9.25004 10.6934 9.25004 10.6959C9.25004 10.6983 9.25004 10.7008 9.25004 10.7033C9.25004 10.7058 9.25004 10.7083 9.25004 10.7108C9.25004 10.7133 9.25004 10.7158 9.25004 10.7183C9.25004 10.7208 9.25004 10.7234 9.25004 10.7259C9.25004 10.7284 9.25004 10.731 9.25004 10.7336C9.25004 10.7361 9.25004 10.7387 9.25004 10.7413C9.25004 10.7438 9.25004 10.7464 9.25004 10.749C9.25004 10.7516 9.25004 10.7542 9.25004 10.7568C9.25004 10.7594 9.25004 10.762 9.25004 10.7647C9.25004 10.7673 9.25004 10.7699 9.25004 10.7726C9.25004 10.7752 9.25004 10.7779 9.25004 10.7806C9.25004 10.7832 9.25004 10.7859 9.25004 10.7886C9.25004 10.7913 9.25004 10.7939 9.25004 10.7966C9.25004 10.7994 9.25004 10.8021 9.25004 10.8048C9.25004 10.8075 9.25004 10.8102 9.25004 10.813C9.25004 10.8157 9.25004 10.8185 9.25004 10.8212C9.25004 10.824 9.25004 10.8267 9.25004 10.8295C9.25004 10.8323 9.25004 10.8351 9.25004 10.8379C9.25004 10.8407 9.25004 10.8435 9.25004 10.8463C9.25004 10.8491 9.25004 10.8519 9.25004 10.8547C9.25004 10.8576 9.25004 10.8604 9.25004 10.8633C9.25004 10.8661 9.25004 10.869 9.25004 10.8718C9.25004 10.8747 9.25004 10.8776 9.25004 10.8805C9.25004 10.8834 9.25004 10.8863 9.25004 10.8892C9.25004 10.8921 9.25004 10.895 9.25004 10.8979C9.25004 10.9008 9.25004 10.9038 9.25004 10.9067C9.25004 10.9097 9.25004 10.9126 9.25004 10.9156C9.25004 10.9186 9.25004 10.9215 9.25004 10.9245C9.25004 10.9275 9.25004 10.9305 9.25004 10.9335C9.25004 10.9365 9.25004 10.9395 9.25004 10.9425C9.25004 10.9455 9.25004 10.9486 9.25004 10.9516C9.25004 10.9547 9.25004 10.9577 9.25004 10.9608C9.25004 10.9638 9.25004 10.9669 9.25004 10.97C9.25004 10.9731 9.25004 10.9762 9.25004 10.9793C9.25004 10.9824 9.25004 10.9855 9.25004 10.9886C9.25004 10.9917 9.25004 10.9948 9.25004 10.998C9.25004 11.0011 9.25004 11.0043 9.25004 11.0074C9.25004 11.0106 9.25004 11.0137 9.25004 11.0169C9.25004 11.0201 9.25004 11.0233 9.25004 11.0265C9.25004 11.0297 9.25004 11.0329 9.25004 11.0361C9.25004 11.0393 9.25004 11.0426 9.25004 11.0458C9.25004 11.049 9.25004 11.0523 9.25004 11.0556C9.25004 11.0588 9.25004 11.0621 9.25004 11.0654C9.25004 11.0686 9.25004 11.0719 9.25004 11.0752C9.25004 11.0785 9.25004 11.0818 9.25004 11.0852C9.25004 11.0885 9.25004 11.0918 9.25004 11.0951C9.25004 11.0985 9.25004 11.1018 9.25004 11.1052C9.25004 11.1086 9.25004 11.1119 9.25004 11.1153C9.25004 11.1187 9.25004 11.1221 9.25004 11.1255C9.25004 11.1289 9.25004 11.1323 9.25004 11.1357C9.25004 11.1391 9.25004 11.1426 9.25004 11.146C9.25004 11.1495 9.25004 11.1529 9.25004 11.1564C9.25004 11.1598 9.25004 11.1633 9.25004 11.1668C9.25004 11.1703 9.25004 11.1738 9.25004 11.1773C9.25004 11.1808 9.25004 11.1843 9.25004 11.1878C9.25004 11.1913 9.25004 11.1949 9.25004 11.1984C9.25004 11.202 9.25004 11.2055 9.25004 11.2091C9.25004 11.2127 9.25004 11.2162 9.25004 11.2198C9.25004 11.2234 9.25004 11.227 9.25004 11.2306C9.25004 11.2342 9.25004 11.2379 9.25004 11.2415C9.25004 11.2451 9.25004 11.2488 9.25004 11.2524C9.25004 11.2561 9.25004 11.2597 9.25004 11.2634C9.25004 11.2671 9.25004 11.2708 9.25004 11.2745C9.25004 11.2782 9.25004 11.2819 9.25004 11.2856C9.25004 11.2893 9.25004 11.293 9.25004 11.2968C9.25004 11.3005 9.25004 11.3042 9.25004 11.308C9.25004 11.3118 9.25004 11.3155 9.25004 11.3193C9.25004 11.3231 9.25004 11.3269 9.25004 11.3307C9.25004 11.3345 9.25004 11.3383 9.25004 11.3421C9.25004 11.346 9.25004 11.3498 9.25004 11.3536C9.25004 11.3575 9.25004 11.3613 9.25004 11.3652C9.25004 11.3691 9.25004 11.373 9.25004 11.3768C9.25004 11.3807 9.25004 11.3846 9.25004 11.3886C9.25004 11.3925 9.25004 11.3964 9.25004 11.4003C9.25004 11.4043 9.25004 11.4082 9.25004 11.4122C9.25004 11.4161 9.25004 11.4201 9.25004 11.4241C9.25004 11.428 9.25004 11.432 9.25004 11.436C9.25004 11.44 9.25004 11.444 9.25004 11.4481C9.25004 11.4521 9.25004 11.4561 9.25004 11.4602C9.25004 11.4642 9.25004 11.4683 9.25004 11.4723C9.25004 11.4764 9.25004 11.4805 9.25004 11.4846C9.25004 11.4887 9.25004 11.4928 9.25004 11.4969C9.25004 11.501 9.25004 11.5051 9.25004 11.5093C9.25004 11.5134 9.25004 11.5175 9.25004 11.5217C9.25004 11.5259 9.25004 11.53 9.25004 11.5342C9.25004 11.5384 9.25004 11.5426 9.25004 11.5468C9.25004 11.551 9.25004 11.5552 9.25004 11.5594C9.25004 11.5637 9.25004 11.5679 9.25004 11.5722C9.25004 11.5764 9.25004 11.5807 9.25004 11.5849C9.25004 11.5892 9.25004 11.5935 9.25004 11.5978C9.25004 11.6021 9.25004 11.6064 9.25004 11.6107C9.25004 11.615 9.25004 11.6194 9.25004 11.6237C9.25004 11.628 9.25004 11.6324 9.25004 11.6368C9.25004 11.6411 9.25004 11.6455 9.25004 11.6499C9.25004 11.6543 9.25004 11.6587 9.25004 11.6631C9.25004 11.6675 9.25004 11.6719 9.25004 11.6764C9.25004 11.6808 9.25004 11.6853 9.25004 11.6897C9.25004 11.6942 9.25004 11.6986 9.25004 11.7031C9.25004 11.7076 9.25004 11.7121 9.25004 11.7166C9.25004 11.7211 9.25004 11.7256 9.25004 11.7302C9.25004 11.7347 9.25004 11.7392 9.25004 11.7438C9.25004 11.7483 9.25004 11.7529 9.25004 11.7575C9.25004 11.7621 9.25004 11.7667 9.25004 11.7713C9.25004 11.7759 9.25004 11.7805 9.25004 11.7851C9.25004 11.7897 9.25004 11.7944 9.25004 11.799C9.25004 11.8037 9.25004 11.8083 9.25004 11.813C9.25004 11.8177 9.25004 11.8224 9.25004 11.827C9.25004 11.8317 9.25004 11.8365 9.25004 11.8412C9.25004 11.8459 9.25004 11.8506 9.25004 11.8554C9.25004 11.8601 9.25004 11.8649 9.25004 11.8697C9.25004 11.8744 9.25004 11.8792 9.25004 11.884C9.25004 11.8888 9.25004 11.8936 9.25004 11.8984C9.25004 11.9032 9.25004 11.9081 9.25004 11.9129C9.25004 11.9178 9.25004 11.9226 9.25004 11.9275C9.25004 11.9324 9.25004 11.9372 9.25004 11.9421C9.25004 11.947 9.25004 11.9519 9.25004 11.9568C9.25004 11.9618 9.25004 11.9667 9.25004 11.9716C9.25004 11.9766 9.25004 11.9815 9.25004 11.9865C9.25004 11.9915 9.25004 11.9964 9.25004 12.0014C9.25004 12.0064 9.25004 12.0114 9.25004 12.0164C9.25004 12.0215 9.25004 12.0265 9.25004 12.0315C9.25004 12.0366 9.25004 12.0416 9.25004 12.0467C9.25004 12.0518 9.25004 12.0568 9.25004 12.0619C9.25004 12.067 9.25004 12.0721 9.25004 12.0773C9.25004 12.0824 9.25004 12.0875 9.25004 12.0926C9.25004 12.0978 9.25004 12.1029 9.25004 12.1081C9.25004 12.1133 9.25004 12.1185 9.25004 12.1236C9.25004 12.1288 9.25004 12.134 9.25004 12.1393C9.25004 12.1445 9.25004 12.1497 9.25004 12.155C9.25004 12.1602 9.25004 12.1655 9.25004 12.1707C9.25004 12.176 9.25004 12.1813 9.25004 12.1866C9.25004 12.1919 9.25004 12.1972 9.25004 12.2025C9.25004 12.2078 9.25004 12.2132 9.25004 12.2185C9.25004 12.2238 9.25004 12.2292 9.25004 12.2346C9.25004 12.24 9.25004 12.2453 9.25004 12.2507C9.25004 12.2561 9.25004 12.2615 9.25004 12.267C9.25004 12.2724 9.25004 12.2778 9.25004 12.2833C9.25004 12.2887 9.25004 12.2942 9.25004 12.2997C9.25004 12.3051 9.25004 12.3106 9.25004 12.3161C9.25004 12.3216 9.25004 12.3272 9.25004 12.3327C9.25004 12.3382 9.25004 12.3438 9.25004 12.3493C9.25004 12.3549 9.25004 12.3604 9.25004 12.366C9.25004 12.3716 9.25004 12.3772 9.25004 12.3828C9.25004 12.3884 9.25004 12.394 9.25004 12.3997C9.25004 12.4053 9.25004 12.4109 9.25004 12.4166C9.25004 12.4223 9.25004 12.4279 9.25004 12.4336C9.25004 12.4393 9.25004 12.445 9.25004 12.4507C9.25004 12.4564 9.25004 12.4622 9.25004 12.4679C9.25004 12.4736 9.25004 12.4794 9.25004 12.4852C9.25004 12.4909 9.25004 12.4967 9.25004 12.5025C9.25004 12.5083 9.25004 12.5141 9.25004 12.5199C9.25004 12.5257 9.25004 12.5316 9.25004 12.5374C9.25004 12.5433 9.25004 12.5491 9.25004 12.555C9.25004 12.5609 9.25004 12.5668 9.25004 12.5727C9.25004 12.5786 9.25004 12.5845 9.25004 12.5904C9.25004 12.5963 9.25004 12.6023 9.25004 12.6082C9.25004 12.6142 9.25004 12.6202 9.25004 12.6261C9.25004 12.6321 9.25004 12.6381 9.25004 12.6441C9.25004 12.6501 9.25004 12.6562 9.25004 12.6622C9.25004 12.6682 9.25004 12.6743 9.25004 12.6804C9.25004 12.6864 9.25004 12.6925 9.25004 12.6986C9.25004 12.7047 9.25004 12.7108 9.25004 12.7169C9.25004 12.723 9.25004 12.7292 9.25004 12.7353C9.25004 12.7415 9.25004 12.7476 9.25004 12.7538C9.25004 12.76 9.25004 12.7662 9.25004 12.7724C9.25004 12.7786 9.25004 12.7848 9.25004 12.791C9.25004 12.7972 9.25004 12.8035 9.25004 12.8097C9.25004 12.816 9.25004 12.8223 9.25004 12.8286C9.25004 12.8349 9.25004 12.8412 9.25004 12.8475C9.25004 12.8538 9.25004 12.8601 9.25004 12.8665C9.25004 12.8728 9.25004 12.8792 9.25004 12.8855C9.25004 12.8919 9.25004 12.8983 9.25004 12.9047C9.25004 12.9111 9.25004 12.9175 9.25004 12.9239C9.25004 12.9303 9.25004 12.9368 9.25004 12.9432C9.25004 12.9497 9.25004 12.9562 9.25004 12.9626C9.25004 12.9691 9.25004 12.9756 9.25004 12.9821C9.25004 12.9887 9.25004 12.9952 9.25004 13.0017C9.25004 13.0083 9.25004 13.0148 9.25004 13.0214C9.25004 13.028 9.25004 13.0345 9.25004 13.0411C9.25004 13.0477 9.25004 13.0543 9.25004 13.061C9.25004 13.0676 9.25004 13.0742 9.25004 13.0809C9.25004 13.0875 9.25004 13.0942 9.25004 13.1009C9.25004 13.1076 9.25004 13.1143 9.25004 13.121C9.25004 13.1277 9.25004 13.1344 9.25004 13.1412C9.25004 13.1479 9.25004 13.1547 9.25004 13.1614C9.25004 13.1682 9.25004 13.175 9.25004 13.1818C9.25004 13.1886 9.25004 13.1954 9.25004 13.2022C9.25004 13.2091 9.25004 13.2159 9.25004 13.2228C9.25004 13.2296 9.25004 13.2365 9.25004 13.2434C9.25004 13.2503 9.25004 13.2572 9.25004 13.2641C9.25004 13.271 9.25004 13.2779 9.25004 13.2849C9.25004 13.2918 9.25004 13.2988 9.25004 13.3058C9.25004 13.3127 9.25004 13.3197 9.25004 13.3267C9.25004 13.3337 9.25004 13.3408 9.25004 13.3478C9.25004 13.3548 9.25004 13.3619 9.25004 13.3689C9.25004 13.376 9.25004 13.3831 9.25004 13.3902C9.25004 13.3973 9.25004 13.4044 9.25004 13.4115C9.25004 13.4186 9.25004 13.4257 9.25004 13.4329C9.25004 13.4401 9.25004 13.4472 9.25004 13.4544C9.25004 13.4616 9.25004 13.4688 9.25004 13.476C9.25004 13.4832 9.25004 13.4904 9.25004 13.4977C9.25004 13.5049 9.25004 13.5122 9.25004 13.5194C9.25004 13.5267 9.25004 13.534 9.25004 13.5413C9.25004 13.5486 9.25004 13.5559 9.25004 13.5633C9.25004 13.5706 9.25004 13.5779 9.25004 13.5853C9.25004 13.5927 9.25004 13.6 9.25004 13.6074C9.25004 13.6148 9.25004 13.6222 9.25004 13.6297C9.25004 13.6371 9.25004 13.6445 9.25004 13.652C9.25004 13.6594 9.25004 13.6669 9.25004 13.6744C9.25004 13.6819 9.25004 13.6894 9.25004 13.6969C9.25004 13.7044 9.25004 13.7119 9.25004 13.7195C9.25004 13.727 9.25004 13.7346 9.25004 13.7422C9.25004 13.7497 9.25004 13.7573 9.25004 13.7649C9.25004 13.7725 9.25004 13.7802 9.25004 13.7878C9.25004 13.7954 9.25004 13.8031 9.25004 13.8108C9.25004 13.8184 9.25004 13.8261 9.25004 13.8338C9.25004 13.8415 9.25004 13.8492 9.25004 13.8569C9.25004 13.8647 9.25004 13.8724 9.25004 13.8802C9.25004 13.8879 9.25004 13.8957 9.25004 13.9035C9.25004 13.9113 9.25004 13.9191 9.25004 13.9269C9.25004 13.9348 9.25004 13.9426 9.25004 13.9505C9.25004 13.9583 9.25004 13.9662 9.25004 13.9741C9.25004 13.9819 9.25004 13.9899 9.25004 13.9978C9.25004 14.0057 9.25004 14.0136 9.25004 14.0216C9.25004 14.0295 9.25004 14.0375 9.25004 14.0455C9.25004 14.0534 9.25004 14.0614 9.25004 14.0694C9.25004 14.0775 9.25004 14.0855 9.25004 14.0935C9.25004 14.1016 9.25004 14.1096 9.25004 14.1177C9.25004 14.1258 9.25004 14.1339 9.25004 14.142C9.25004 14.1501 9.25004 14.1582 9.25004 14.1663H10.75C10.75 14.1582 10.75 14.1501 10.75 14.142C10.75 14.1339 10.75 14.1258 10.75 14.1177C10.75 14.1096 10.75 14.1016 10.75 14.0935C10.75 14.0855 10.75 14.0775 10.75 14.0694C10.75 14.0614 10.75 14.0534 10.75 14.0455C10.75 14.0375 10.75 14.0295 10.75 14.0216C10.75 14.0136 10.75 14.0057 10.75 13.9978C10.75 13.9899 10.75 13.9819 10.75 13.9741C10.75 13.9662 10.75 13.9583 10.75 13.9505C10.75 13.9426 10.75 13.9348 10.75 13.9269C10.75 13.9191 10.75 13.9113 10.75 13.9035C10.75 13.8957 10.75 13.8879 10.75 13.8802C10.75 13.8724 10.75 13.8647 10.75 13.8569C10.75 13.8492 10.75 13.8415 10.75 13.8338C10.75 13.8261 10.75 13.8184 10.75 13.8108C10.75 13.8031 10.75 13.7954 10.75 13.7878C10.75 13.7802 10.75 13.7725 10.75 13.7649C10.75 13.7573 10.75 13.7497 10.75 13.7422C10.75 13.7346 10.75 13.727 10.75 13.7195C10.75 13.7119 10.75 13.7044 10.75 13.6969C10.75 13.6894 10.75 13.6819 10.75 13.6744C10.75 13.6669 10.75 13.6594 10.75 13.652C10.75 13.6445 10.75 13.6371 10.75 13.6297C10.75 13.6222 10.75 13.6148 10.75 13.6074C10.75 13.6 10.75 13.5927 10.75 13.5853C10.75 13.5779 10.75 13.5706 10.75 13.5633C10.75 13.5559 10.75 13.5486 10.75 13.5413C10.75 13.534 10.75 13.5267 10.75 13.5194C10.75 13.5122 10.75 13.5049 10.75 13.4977C10.75 13.4904 10.75 13.4832 10.75 13.476C10.75 13.4688 10.75 13.4616 10.75 13.4544C10.75 13.4472 10.75 13.4401 10.75 13.4329C10.75 13.4257 10.75 13.4186 10.75 13.4115C10.75 13.4044 10.75 13.3973 10.75 13.3902C10.75 13.3831 10.75 13.376 10.75 13.3689C10.75 13.3619 10.75 13.3548 10.75 13.3478C10.75 13.3408 10.75 13.3337 10.75 13.3267C10.75 13.3197 10.75 13.3127 10.75 13.3058C10.75 13.2988 10.75 13.2918 10.75 13.2849C10.75 13.2779 10.75 13.271 10.75 13.2641C10.75 13.2572 10.75 13.2503 10.75 13.2434C10.75 13.2365 10.75 13.2296 10.75 13.2228C10.75 13.2159 10.75 13.2091 10.75 13.2022C10.75 13.1954 10.75 13.1886 10.75 13.1818C10.75 13.175 10.75 13.1682 10.75 13.1614C10.75 13.1547 10.75 13.1479 10.75 13.1412C10.75 13.1344 10.75 13.1277 10.75 13.121C10.75 13.1143 10.75 13.1076 10.75 13.1009C10.75 13.0942 10.75 13.0875 10.75 13.0809C10.75 13.0742 10.75 13.0676 10.75 13.061C10.75 13.0543 10.75 13.0477 10.75 13.0411C10.75 13.0345 10.75 13.028 10.75 13.0214C10.75 13.0148 10.75 13.0083 10.75 13.0017C10.75 12.9952 10.75 12.9887 10.75 12.9821C10.75 12.9756 10.75 12.9691 10.75 12.9626C10.75 12.9562 10.75 12.9497 10.75 12.9432C10.75 12.9368 10.75 12.9303 10.75 12.9239C10.75 12.9175 10.75 12.9111 10.75 12.9047C10.75 12.8983 10.75 12.8919 10.75 12.8855C10.75 12.8792 10.75 12.8728 10.75 12.8665C10.75 12.8601 10.75 12.8538 10.75 12.8475C10.75 12.8412 10.75 12.8349 10.75 12.8286C10.75 12.8223 10.75 12.816 10.75 12.8097C10.75 12.8035 10.75 12.7972 10.75 12.791C10.75 12.7848 10.75 12.7786 10.75 12.7724C10.75 12.7662 10.75 12.76 10.75 12.7538C10.75 12.7476 10.75 12.7415 10.75 12.7353C10.75 12.7292 10.75 12.723 10.75 12.7169C10.75 12.7108 10.75 12.7047 10.75 12.6986C10.75 12.6925 10.75 12.6864 10.75 12.6804C10.75 12.6743 10.75 12.6682 10.75 12.6622C10.75 12.6562 10.75 12.6501 10.75 12.6441C10.75 12.6381 10.75 12.6321 10.75 12.6261C10.75 12.6202 10.75 12.6142 10.75 12.6082C10.75 12.6023 10.75 12.5963 10.75 12.5904C10.75 12.5845 10.75 12.5786 10.75 12.5727C10.75 12.5668 10.75 12.5609 10.75 12.555C10.75 12.5491 10.75 12.5433 10.75 12.5374C10.75 12.5316 10.75 12.5257 10.75 12.5199C10.75 12.5141 10.75 12.5083 10.75 12.5025C10.75 12.4967 10.75 12.4909 10.75 12.4852C10.75 12.4794 10.75 12.4736 10.75 12.4679C10.75 12.4622 10.75 12.4564 10.75 12.4507C10.75 12.445 10.75 12.4393 10.75 12.4336C10.75 12.4279 10.75 12.4223 10.75 12.4166C10.75 12.4109 10.75 12.4053 10.75 12.3997C10.75 12.394 10.75 12.3884 10.75 12.3828C10.75 12.3772 10.75 12.3716 10.75 12.366C10.75 12.3604 10.75 12.3549 10.75 12.3493C10.75 12.3438 10.75 12.3382 10.75 12.3327C10.75 12.3272 10.75 12.3216 10.75 12.3161C10.75 12.3106 10.75 12.3051 10.75 12.2997C10.75 12.2942 10.75 12.2887 10.75 12.2833C10.75 12.2778 10.75 12.2724 10.75 12.267C10.75 12.2615 10.75 12.2561 10.75 12.2507C10.75 12.2453 10.75 12.24 10.75 12.2346C10.75 12.2292 10.75 12.2238 10.75 12.2185C10.75 12.2132 10.75 12.2078 10.75 12.2025C10.75 12.1972 10.75 12.1919 10.75 12.1866C10.75 12.1813 10.75 12.176 10.75 12.1707C10.75 12.1655 10.75 12.1602 10.75 12.155C10.75 12.1497 10.75 12.1445 10.75 12.1393C10.75 12.134 10.75 12.1288 10.75 12.1236C10.75 12.1185 10.75 12.1133 10.75 12.1081C10.75 12.1029 10.75 12.0978 10.75 12.0926C10.75 12.0875 10.75 12.0824 10.75 12.0773C10.75 12.0721 10.75 12.067 10.75 12.0619C10.75 12.0568 10.75 12.0518 10.75 12.0467C10.75 12.0416 10.75 12.0366 10.75 12.0315C10.75 12.0265 10.75 12.0215 10.75 12.0164C10.75 12.0114 10.75 12.0064 10.75 12.0014C10.75 11.9964 10.75 11.9915 10.75 11.9865C10.75 11.9815 10.75 11.9766 10.75 11.9716C10.75 11.9667 10.75 11.9618 10.75 11.9568C10.75 11.9519 10.75 11.947 10.75 11.9421C10.75 11.9372 10.75 11.9324 10.75 11.9275C10.75 11.9226 10.75 11.9178 10.75 11.9129C10.75 11.9081 10.75 11.9032 10.75 11.8984C10.75 11.8936 10.75 11.8888 10.75 11.884C10.75 11.8792 10.75 11.8744 10.75 11.8697C10.75 11.8649 10.75 11.8601 10.75 11.8554C10.75 11.8506 10.75 11.8459 10.75 11.8412C10.75 11.8365 10.75 11.8317 10.75 11.827C10.75 11.8224 10.75 11.8177 10.75 11.813C10.75 11.8083 10.75 11.8037 10.75 11.799C10.75 11.7944 10.75 11.7897 10.75 11.7851C10.75 11.7805 10.75 11.7759 10.75 11.7713C10.75 11.7667 10.75 11.7621 10.75 11.7575C10.75 11.7529 10.75 11.7483 10.75 11.7438C10.75 11.7392 10.75 11.7347 10.75 11.7302C10.75 11.7256 10.75 11.7211 10.75 11.7166C10.75 11.7121 10.75 11.7076 10.75 11.7031C10.75 11.6986 10.75 11.6942 10.75 11.6897C10.75 11.6853 10.75 11.6808 10.75 11.6764C10.75 11.6719 10.75 11.6675 10.75 11.6631C10.75 11.6587 10.75 11.6543 10.75 11.6499C10.75 11.6455 10.75 11.6411 10.75 11.6368C10.75 11.6324 10.75 11.628 10.75 11.6237C10.75 11.6194 10.75 11.615 10.75 11.6107C10.75 11.6064 10.75 11.6021 10.75 11.5978C10.75 11.5935 10.75 11.5892 10.75 11.5849C10.75 11.5807 10.75 11.5764 10.75 11.5722C10.75 11.5679 10.75 11.5637 10.75 11.5594C10.75 11.5552 10.75 11.551 10.75 11.5468C10.75 11.5426 10.75 11.5384 10.75 11.5342C10.75 11.53 10.75 11.5259 10.75 11.5217C10.75 11.5175 10.75 11.5134 10.75 11.5093C10.75 11.5051 10.75 11.501 10.75 11.4969C10.75 11.4928 10.75 11.4887 10.75 11.4846C10.75 11.4805 10.75 11.4764 10.75 11.4723C10.75 11.4683 10.75 11.4642 10.75 11.4602C10.75 11.4561 10.75 11.4521 10.75 11.4481C10.75 11.444 10.75 11.44 10.75 11.436C10.75 11.432 10.75 11.428 10.75 11.4241C10.75 11.4201 10.75 11.4161 10.75 11.4122C10.75 11.4082 10.75 11.4043 10.75 11.4003C10.75 11.3964 10.75 11.3925 10.75 11.3886C10.75 11.3846 10.75 11.3807 10.75 11.3768C10.75 11.373 10.75 11.3691 10.75 11.3652C10.75 11.3613 10.75 11.3575 10.75 11.3536C10.75 11.3498 10.75 11.346 10.75 11.3421C10.75 11.3383 10.75 11.3345 10.75 11.3307C10.75 11.3269 10.75 11.3231 10.75 11.3193C10.75 11.3155 10.75 11.3118 10.75 11.308C10.75 11.3042 10.75 11.3005 10.75 11.2968C10.75 11.293 10.75 11.2893 10.75 11.2856C10.75 11.2819 10.75 11.2782 10.75 11.2745C10.75 11.2708 10.75 11.2671 10.75 11.2634C10.75 11.2597 10.75 11.2561 10.75 11.2524C10.75 11.2488 10.75 11.2451 10.75 11.2415C10.75 11.2379 10.75 11.2342 10.75 11.2306C10.75 11.227 10.75 11.2234 10.75 11.2198C10.75 11.2162 10.75 11.2127 10.75 11.2091C10.75 11.2055 10.75 11.202 10.75 11.1984C10.75 11.1949 10.75 11.1913 10.75 11.1878C10.75 11.1843 10.75 11.1808 10.75 11.1773C10.75 11.1738 10.75 11.1703 10.75 11.1668C10.75 11.1633 10.75 11.1598 10.75 11.1564C10.75 11.1529 10.75 11.1495 10.75 11.146C10.75 11.1426 10.75 11.1391 10.75 11.1357C10.75 11.1323 10.75 11.1289 10.75 11.1255C10.75 11.1221 10.75 11.1187 10.75 11.1153C10.75 11.1119 10.75 11.1086 10.75 11.1052C10.75 11.1018 10.75 11.0985 10.75 11.0951C10.75 11.0918 10.75 11.0885 10.75 11.0852C10.75 11.0818 10.75 11.0785 10.75 11.0752C10.75 11.0719 10.75 11.0686 10.75 11.0654C10.75 11.0621 10.75 11.0588 10.75 11.0556C10.75 11.0523 10.75 11.049 10.75 11.0458C10.75 11.0426 10.75 11.0393 10.75 11.0361C10.75 11.0329 10.75 11.0297 10.75 11.0265C10.75 11.0233 10.75 11.0201 10.75 11.0169C10.75 11.0137 10.75 11.0106 10.75 11.0074C10.75 11.0043 10.75 11.0011 10.75 10.998C10.75 10.9948 10.75 10.9917 10.75 10.9886C10.75 10.9855 10.75 10.9824 10.75 10.9793C10.75 10.9762 10.75 10.9731 10.75 10.97C10.75 10.9669 10.75 10.9638 10.75 10.9608C10.75 10.9577 10.75 10.9547 10.75 10.9516C10.75 10.9486 10.75 10.9455 10.75 10.9425C10.75 10.9395 10.75 10.9365 10.75 10.9335C10.75 10.9305 10.75 10.9275 10.75 10.9245C10.75 10.9215 10.75 10.9186 10.75 10.9156C10.75 10.9126 10.75 10.9097 10.75 10.9067C10.75 10.9038 10.75 10.9008 10.75 10.8979C10.75 10.895 10.75 10.8921 10.75 10.8892C10.75 10.8863 10.75 10.8834 10.75 10.8805C10.75 10.8776 10.75 10.8747 10.75 10.8718C10.75 10.869 10.75 10.8661 10.75 10.8633C10.75 10.8604 10.75 10.8576 10.75 10.8547C10.75 10.8519 10.75 10.8491 10.75 10.8463C10.75 10.8435 10.75 10.8407 10.75 10.8379C10.75 10.8351 10.75 10.8323 10.75 10.8295C10.75 10.8267 10.75 10.824 10.75 10.8212C10.75 10.8185 10.75 10.8157 10.75 10.813C10.75 10.8102 10.75 10.8075 10.75 10.8048C10.75 10.8021 10.75 10.7994 10.75 10.7966C10.75 10.7939 10.75 10.7913 10.75 10.7886C10.75 10.7859 10.75 10.7832 10.75 10.7806C10.75 10.7779 10.75 10.7752 10.75 10.7726C10.75 10.7699 10.75 10.7673 10.75 10.7647C10.75 10.762 10.75 10.7594 10.75 10.7568C10.75 10.7542 10.75 10.7516 10.75 10.749C10.75 10.7464 10.75 10.7438 10.75 10.7413C10.75 10.7387 10.75 10.7361 10.75 10.7336C10.75 10.731 10.75 10.7284 10.75 10.7259C10.75 10.7234 10.75 10.7208 10.75 10.7183C10.75 10.7158 10.75 10.7133 10.75 10.7108C10.75 10.7083 10.75 10.7058 10.75 10.7033C10.75 10.7008 10.75 10.6983 10.75 10.6959C10.75 10.6934 10.75 10.6909 10.75 10.6885C10.75 10.686 10.75 10.6836 10.75 10.6812C10.75 10.6787 10.75 10.6763 10.75 10.6739C10.75 10.6715 10.75 10.6691 10.75 10.6667C10.75 10.6643 10.75 10.6619 10.75 10.6595C10.75 10.6571 10.75 10.6547 10.75 10.6524C10.75 10.65 10.75 10.6476 10.75 10.6453C10.75 10.6429 10.75 10.6406 10.75 10.6383C10.75 10.6359 10.75 10.6336 10.75 10.6313C10.75 10.629 10.75 10.6267 10.75 10.6244C10.75 10.6221 10.75 10.6198 10.75 10.6175C10.75 10.6153 10.75 10.613 10.75 10.6107C10.75 10.6085 10.75 10.6062 10.75 10.604C10.75 10.6017 10.75 10.5995 10.75 10.5972C10.75 10.595 10.75 10.5928 10.75 10.5906C10.75 10.5884 10.75 10.5862 10.75 10.584C10.75 10.5818 10.75 10.5796 10.75 10.5774C10.75 10.5752 10.75 10.573 10.75 10.5709C10.75 10.5687 10.75 10.5666 10.75 10.5644C10.75 10.5623 10.75 10.5601 10.75 10.558C10.75 10.5559 10.75 10.5537 10.75 10.5516C10.75 10.5495 10.75 10.5474 10.75 10.5453C10.75 10.5432 10.75 10.5411 10.75 10.539C10.75 10.537 10.75 10.5349 10.75 10.5328C10.75 10.5307 10.75 10.5287 10.75 10.5266C10.75 10.5246 10.75 10.5225 10.75 10.5205C10.75 10.5185 10.75 10.5164 10.75 10.5144C10.75 10.5124 10.75 10.5104 10.75 10.5084C10.75 10.5064 10.75 10.5044 10.75 10.5024C10.75 10.5004 10.75 10.4984 10.75 10.4965C10.75 10.4945 10.75 10.4925 10.75 10.4906C10.75 10.4886 10.75 10.4867 10.75 10.4847C10.75 10.4828 10.75 10.4809 10.75 10.4789C10.75 10.477 10.75 10.4751 10.75 10.4732C10.75 10.4713 10.75 10.4694 10.75 10.4675C10.75 10.4656 10.75 10.4637 10.75 10.4618C10.75 10.4599 10.75 10.4581 10.75 10.4562C10.75 10.4543 10.75 10.4525 10.75 10.4506C10.75 10.4488 10.75 10.447 10.75 10.4451C10.75 10.4433 10.75 10.4415 10.75 10.4396C10.75 10.4378 10.75 10.436 10.75 10.4342C10.75 10.4324 10.75 10.4306 10.75 10.4288C10.75 10.427 10.75 10.4253 10.75 10.4235C10.75 10.4217 10.75 10.4199 10.75 10.4182C10.75 10.4164 10.75 10.4147 10.75 10.4129C10.75 10.4112 10.75 10.4095 10.75 10.4077C10.75 10.406 10.75 10.4043 10.75 10.4026C10.75 10.4008 10.75 10.3991 10.75 10.3974C10.75 10.3957 10.75 10.394 10.75 10.3924C10.75 10.3907 10.75 10.389 10.75 10.3873C10.75 10.3857 10.75 10.384 10.75 10.3823C10.75 10.3807 10.75 10.379 10.75 10.3774C10.75 10.3757 10.75 10.3741 10.75 10.3725C10.75 10.3709 10.75 10.3692 10.75 10.3676C10.75 10.366 10.75 10.3644 10.75 10.3628C10.75 10.3612 10.75 10.3596 10.75 10.358C10.75 10.3564 10.75 10.3549 10.75 10.3533C10.75 10.3517 10.75 10.3502 10.75 10.3486C10.75 10.347 10.75 10.3455 10.75 10.3439C10.75 10.3424 10.75 10.3409 10.75 10.3393C10.75 10.3378 10.75 10.3363 10.75 10.3348C10.75 10.3332 10.75 10.3317 10.75 10.3302C10.75 10.3287 10.75 10.3272 10.75 10.3257C10.75 10.3243 10.75 10.3228 10.75 10.3213C10.75 10.3198 10.75 10.3184 10.75 10.3169C10.75 10.3154 10.75 10.314 10.75 10.3125C10.75 10.3111 10.75 10.3096 10.75 10.3082C10.75 10.3068 10.75 10.3053 10.75 10.3039C10.75 10.3025 10.75 10.3011 10.75 10.2997C10.75 10.2983 10.75 10.2969 10.75 10.2955C10.75 10.2941 10.75 10.2927 10.75 10.2913C10.75 10.2899 10.75 10.2885 10.75 10.2872C10.75 10.2858 10.75 10.2844 10.75 10.2831C10.75 10.2817 10.75 10.2804 10.75 10.279C10.75 10.2777 10.75 10.2764 10.75 10.275C10.75 10.2737 10.75 10.2724 10.75 10.2711C10.75 10.2697 10.75 10.2684 10.75 10.2671C10.75 10.2658 10.75 10.2645 10.75 10.2632C10.75 10.2619 10.75 10.2607 10.75 10.2594C10.75 10.2581 10.75 10.2568 10.75 10.2556C10.75 10.2543 10.75 10.253 10.75 10.2518C10.75 10.2505 10.75 10.2493 10.75 10.248C10.75 10.2468 10.75 10.2456 10.75 10.2443C10.75 10.2431 10.75 10.2419 10.75 10.2407C10.75 10.2394 10.75 10.2382 10.75 10.237C10.75 10.2358 10.75 10.2346 10.75 10.2334C10.75 10.2322 10.75 10.231 10.75 10.2299C10.75 10.2287 10.75 10.2275 10.75 10.2263C10.75 10.2252 10.75 10.224 10.75 10.2229C10.75 10.2217 10.75 10.2205 10.75 10.2194C10.75 10.2183 10.75 10.2171 10.75 10.216C10.75 10.2149 10.75 10.2137 10.75 10.2126C10.75 10.2115 10.75 10.2104 10.75 10.2093C10.75 10.2082 10.75 10.207 10.75 10.206C10.75 10.2049 10.75 10.2038 10.75 10.2027C10.75 10.2016 10.75 10.2005 10.75 10.1994C10.75 10.1984 10.75 10.1973 10.75 10.1962C10.75 10.1952 10.75 10.1941 10.75 10.1931C10.75 10.192 10.75 10.191 10.75 10.1899C10.75 10.1889 10.75 10.1879 10.75 10.1868C10.75 10.1858 10.75 10.1848 10.75 10.1838C10.75 10.1827 10.75 10.1817 10.75 10.1807C10.75 10.1797 10.75 10.1787 10.75 10.1777C10.75 10.1767 10.75 10.1757 10.75 10.1748C10.75 10.1738 10.75 10.1728 10.75 10.1718C10.75 10.1708 10.75 10.1699 10.75 10.1689C10.75 10.168 10.75 10.167 10.75 10.1661C10.75 10.1651 10.75 10.1642 10.75 10.1632C10.75 10.1623 10.75 10.1613 10.75 10.1604C10.75 10.1595 10.75 10.1586 10.75 10.1576C10.75 10.1567 10.75 10.1558 10.75 10.1549C10.75 10.154 10.75 10.1531 10.75 10.1522C10.75 10.1513 10.75 10.1504 10.75 10.1495C10.75 10.1486 10.75 10.1478 10.75 10.1469C10.75 10.146 10.75 10.1451 10.75 10.1443C10.75 10.1434 10.75 10.1425 10.75 10.1417C10.75 10.1408 10.75 10.14 10.75 10.1391C10.75 10.1383 10.75 10.1374 10.75 10.1366C10.75 10.1358 10.75 10.1349 10.75 10.1341C10.75 10.1333 10.75 10.1325 10.75 10.1317C10.75 10.1308 10.75 10.13 10.75 10.1292C10.75 10.1284 10.75 10.1276 10.75 10.1268C10.75 10.126 10.75 10.1252 10.75 10.1245C10.75 10.1237 10.75 10.1229 10.75 10.1221C10.75 10.1213 10.75 10.1206 10.75 10.1198C10.75 10.119 10.75 10.1183 10.75 10.1175C10.75 10.1168 10.75 10.116 10.75 10.1153C10.75 10.1145 10.75 10.1138 10.75 10.1131C10.75 10.1123 10.75 10.1116 10.75 10.1109C10.75 10.1101 10.75 10.1094 10.75 10.1087C10.75 10.108 10.75 10.1073 10.75 10.1066C10.75 10.1059 10.75 10.1051 10.75 10.1044C10.75 10.1038 10.75 10.1031 10.75 10.1024C10.75 10.1017 10.75 10.101 10.75 10.1003C10.75 10.0996 10.75 10.099 10.75 10.0983C10.75 10.0976 10.75 10.097 10.75 10.0963C10.75 10.0956 10.75 10.095 10.75 10.0943C10.75 10.0937 10.75 10.093 10.75 10.0924C10.75 10.0917 10.75 10.0911 10.75 10.0905C10.75 10.0898 10.75 10.0892 10.75 10.0886C10.75 10.0879 10.75 10.0873 10.75 10.0867C10.75 10.0861 10.75 10.0855 10.75 10.0849C10.75 10.0843 10.75 10.0836 10.75 10.083C10.75 10.0824 10.75 10.0819 10.75 10.0813C10.75 10.0807 10.75 10.0801 10.75 10.0795C10.75 10.0789 10.75 10.0783 10.75 10.0778C10.75 10.0772 10.75 10.0766 10.75 10.0761C10.75 10.0755 10.75 10.0749 10.75 10.0744C10.75 10.0738 10.75 10.0733 10.75 10.0727C10.75 10.0722 10.75 10.0716 10.75 10.0711C10.75 10.0705 10.75 10.07 10.75 10.0695C10.75 10.0689 10.75 10.0684 10.75 10.0679C10.75 10.0674 10.75 10.0668 10.75 10.0663C10.75 10.0658 10.75 10.0653 10.75 10.0648C10.75 10.0643 10.75 10.0638 10.75 10.0633C10.75 10.0628 10.75 10.0623 10.75 10.0618C10.75 10.0613 10.75 10.0608 10.75 10.0603C10.75 10.0598 10.75 10.0593 10.75 10.0589C10.75 10.0584 10.75 10.0579 10.75 10.0574C10.75 10.057 10.75 10.0565 10.75 10.056C10.75 10.0556 10.75 10.0551 10.75 10.0547C10.75 10.0542 10.75 10.0538 10.75 10.0533C10.75 10.0529 10.75 10.0524 10.75 10.052C10.75 10.0515 10.75 10.0511 10.75 10.0507C10.75 10.0502 10.75 10.0498 10.75 10.0494C10.75 10.049 10.75 10.0485 10.75 10.0481C10.75 10.0477 10.75 10.0473 10.75 10.0469C10.75 10.0465 10.75 10.0461 10.75 10.0457C10.75 10.0453 10.75 10.0449 10.75 10.0445C10.75 10.0441 10.75 10.0437 10.75 10.0433C10.75 10.0429 10.75 10.0425 10.75 10.0421C10.75 10.0417 10.75 10.0414 10.75 10.041C10.75 10.0406 10.75 10.0402 10.75 10.0399C10.75 10.0395 10.75 10.0391 10.75 10.0388C10.75 10.0384 10.75 10.0381 10.75 10.0377C10.75 10.0373 10.75 10.037 10.75 10.0366C10.75 10.0363 10.75 10.036 10.75 10.0356C10.75 10.0353 10.75 10.0349 10.75 10.0346C10.75 10.0343 10.75 10.0339 10.75 10.0336C10.75 10.0333 10.75 10.0329 10.75 10.0326C10.75 10.0323 10.75 10.032 10.75 10.0317C10.75 10.0313 10.75 10.031 10.75 10.0307C10.75 10.0304 10.75 10.0301 10.75 10.0298C10.75 10.0295 10.75 10.0292 10.75 10.0289C10.75 10.0286 10.75 10.0283 10.75 10.028C10.75 10.0277 10.75 10.0274 10.75 10.0271C10.75 10.0269 10.75 10.0266 10.75 10.0263C10.75 10.026 10.75 10.0257 10.75 10.0255C10.75 10.0252 10.75 10.0249 10.75 10.0246C10.75 10.0244 10.75 10.0241 10.75 10.0238C10.75 10.0236 10.75 10.0233 10.75 10.0231C10.75 10.0228 10.75 10.0226 10.75 10.0223C10.75 10.0221 10.75 10.0218 10.75 10.0216C10.75 10.0213 10.75 10.0211 10.75 10.0208C10.75 10.0206 10.75 10.0204 10.75 10.0201C10.75 10.0199 10.75 10.0196 10.75 10.0194C10.75 10.0192 10.75 10.019 10.75 10.0187C10.75 10.0185 10.75 10.0183 10.75 10.0181C10.75 10.0179 10.75 10.0176 10.75 10.0174C10.75 10.0172 10.75 10.017 10.75 10.0168C10.75 10.0166 10.75 10.0164 10.75 10.0162C10.75 10.016 10.75 10.0158 10.75 10.0156C10.75 10.0154 10.75 10.0152 10.75 10.015C10.75 10.0148 10.75 10.0146 10.75 10.0144C10.75 10.0142 10.75 10.014 10.75 10.0138C10.75 10.0137 10.75 10.0135 10.75 10.0133C10.75 10.0131 10.75 10.0129 10.75 10.0128C10.75 10.0126 10.75 10.0124 10.75 10.0123C10.75 10.0121 10.75 10.0119 10.75 10.0118C10.75 10.0116 10.75 10.0114 10.75 10.0113C10.75 10.0111 10.75 10.0109 10.75 10.0108C10.75 10.0106 10.75 10.0105 10.75 10.0103C10.75 10.0102 10.75 10.01 10.75 10.0099C10.75 10.0097 10.75 10.0096 10.75 10.0094C10.75 10.0093 10.75 10.0092 10.75 10.009C10.75 10.0089 10.75 10.0087 10.75 10.0086C10.75 10.0085 10.75 10.0083 10.75 10.0082C10.75 10.0081 10.75 10.0079 10.75 10.0078C10.75 10.0077 10.75 10.0076 10.75 10.0074C10.75 10.0073 10.75 10.0072 10.75 10.0071C10.75 10.007 10.75 10.0068 10.75 10.0067C10.75 10.0066 10.75 10.0065 10.75 10.0064C10.75 10.0063 10.75 10.0062 10.75 10.0061C10.75 10.0059 10.75 10.0058 10.75 10.0057C10.75 10.0056 10.75 10.0055 10.75 10.0054C10.75 10.0053 10.75 10.0052 10.75 10.0051C10.75 10.005 10.75 10.0049 10.75 10.0048C10.75 10.0047 10.75 10.0047 10.75 10.0046C10.75 10.0045 10.75 10.0044 10.75 10.0043C10.75 10.0042 10.75 10.0041 10.75 10.004C10.75 10.004 10.75 10.0039 10.75 10.0038C10.75 10.0037 10.75 10.0036 10.75 10.0036C10.75 10.0035 10.75 10.0034 10.75 10.0033C10.75 10.0033 10.75 10.0032 10.75 10.0031C10.75 10.003 10.75 10.003 10.75 10.0029C10.75 10.0028 10.75 10.0028 10.75 10.0027C10.75 10.0026 10.75 10.0026 10.75 10.0025C10.75 10.0024 10.75 10.0024 10.75 10.0023C10.75 10.0023 10.75 10.0022 10.75 10.0021C10.75 10.0021 10.75 10.002 10.75 10.002C10.75 10.0019 10.75 10.0019 10.75 10.0018C10.75 10.0018 10.75 10.0017 10.75 10.0017C10.75 10.0016 10.75 10.0016 10.75 10.0015C10.75 10.0015 10.75 10.0014 10.75 10.0014C10.75 10.0013 10.75 10.0013 10.75 10.0012C10.75 10.0012 10.75 10.0012 10.75 10.0011C10.75 10.0011 10.75 10.001 10.75 10.001C10.75 10.001 10.75 10.0009 10.75 10.0009C10.75 10.0009 10.75 10.0008 10.75 10.0008C10.75 10.0008 10.75 10.0007 10.75 10.0007C10.75 10.0007 10.75 10.0006 10.75 10.0006C10.75 10.0006 10.75 10.0005 10.75 10.0005C10.75 10.0005 10.75 10.0005 10.75 10.0004C10.75 10.0004 10.75 10.0004 10.75 10.0004C10.75 10.0003 10.75 10.0003 10.75 10.0003C10.75 10.0003 10.75 10.0002 10.75 10.0002C10.75 10.0002 10.75 10.0002 10.75 10.0002C10.75 10.0001 10.75 10.0001 10.75 10.0001C10.75 10.0001 10.75 10.0001 10.75 10.0001C10.75 10 10.75 10 10.75 10C10.75 9.99999 10.75 9.99998 10.75 9.99996C10.75 9.99995 10.75 9.99994 10.75 9.99992C10.75 9.99991 10.75 9.9999 10.75 9.99989C10.75 9.99988 10.75 9.99987 10.75 9.99986C10.75 9.99985 10.75 9.99984 10.75 9.99983C10.75 9.99982 10.75 9.99981 10.75 9.9998C10.75 9.99979 10.75 9.99979 10.75 9.99978C10.75 9.99977 10.75 9.99977 10.75 9.99976C10.75 9.99975 10.75 9.99975 10.75 9.99974C10.75 9.99974 10.75 9.99973 10.75 9.99973C10.75 9.99972 10.75 9.99972 10.75 9.99972C10.75 9.99971 10.75 9.99971 10.75 9.99971C10.75 9.9997 10.75 9.9997 10.75 9.9997C10.75 9.99969 10.75 9.99969 10.75 9.99969C10.75 9.99969 10.75 9.99969 10.75 9.99969C10.75 9.99968 10.75 9.99968 10.75 9.99968C10.75 9.99968 10.75 9.99968 10.75 9.99968C10.75 9.99968 10.75 9.99968 10.75 9.99968C10.75 9.99968 10.75 9.99968 10.75 9.99968C10.75 9.99968 10.75 9.99968 10.75 9.99968C10.75 9.99967 10.75 9.99967 10.75 9.99967H10ZM10.75 9.99967V5.83301H9.25004V9.99967H10.75Z" fill="#CCCCCC"/>
</svg>
