<svg width="20" height="20" viewBox="0 0 20 20" fill="none" xmlns="http://www.w3.org/2000/svg">
<path d="M5.83337 9.24967C5.41916 9.24967 5.08337 9.58546 5.08337 9.99967C5.08337 10.4139 5.41916 10.7497 5.83337 10.7497V9.24967ZM10 10.7497C10.4143 10.7497 10.75 10.4139 10.75 9.99967C10.75 9.58546 10.4143 9.24967 10 9.24967V10.7497ZM10 9.24967C9.58583 9.24967 9.25004 9.58546 9.25004 9.99967C9.25004 10.4139 9.58583 10.7497 10 10.7497V9.24967ZM14.1667 10.7497C14.5809 10.7497 14.9167 10.4139 14.9167 9.99967C14.9167 9.58546 14.5809 9.24967 14.1667 9.24967V10.7497ZM5.83337 10.7497H10V9.24967H5.83337V10.7497ZM10 10.7497H14.1667V9.24967H10V10.7497Z" fill="#222222"/>
</svg>
