<svg width="20" height="20" viewBox="0 0 20 20" fill="none" xmlns="http://www.w3.org/2000/svg">
<path fill-rule="evenodd" clip-rule="evenodd" d="M9.7444 13.734C9.72586 14.6313 8.98667 15.3456 8.08923 15.3333C7.19179 15.321 6.47245 14.5868 6.47851 13.6893C6.48456 12.7918 7.21374 12.0673 8.11126 12.0671C8.54888 12.0716 8.9668 12.2497 9.27308 12.5623C9.57936 12.8749 9.7489 13.2964 9.7444 13.734V13.734Z" stroke="#222222" stroke-linecap="round" stroke-linejoin="round"/>
<path fill-rule="evenodd" clip-rule="evenodd" d="M17.5228 13.734C17.5042 14.6313 16.765 15.3456 15.8676 15.3333C14.9701 15.321 14.2508 14.5868 14.2569 13.6893C14.2629 12.7918 14.9921 12.0673 15.8896 12.0671C16.3272 12.0716 16.7452 12.2497 17.0514 12.5623C17.3577 12.8749 17.5272 13.2964 17.5228 13.734V13.734Z" stroke="#222222" stroke-linecap="round" stroke-linejoin="round"/>
<path d="M14.064 14.2341C14.3401 14.2341 14.564 14.0102 14.564 13.7341C14.564 13.4579 14.3401 13.2341 14.064 13.2341V14.2341ZM9.74418 13.2341C9.46804 13.2341 9.24418 13.4579 9.24418 13.7341C9.24418 14.0102 9.46804 14.2341 9.74418 14.2341V13.2341ZM13.5674 13.7343C13.5674 14.0104 13.7912 14.2343 14.0674 14.2343C14.3435 14.2343 14.5674 14.0104 14.5674 13.7343H13.5674ZM14.5674 9.6959C14.5674 9.41975 14.3435 9.1959 14.0674 9.1959C13.7912 9.1959 13.5674 9.41975 13.5674 9.6959H14.5674ZM14.0668 13.2341C13.7907 13.2341 13.5668 13.4579 13.5668 13.7341C13.5668 14.0102 13.7907 14.2341 14.0668 14.2341V13.2341ZM14.2593 14.2341C14.5354 14.2341 14.7593 14.0102 14.7593 13.7341C14.7593 13.4579 14.5354 13.2341 14.2593 13.2341V14.2341ZM17.5155 13.2344C17.2394 13.2402 17.0203 13.4688 17.0261 13.7448C17.032 14.0209 17.2605 14.24 17.5366 14.2342L17.5155 13.2344ZM19.2519 11.9394L19.7519 11.9303C19.7514 11.9039 19.7488 11.8776 19.7442 11.8515L19.2519 11.9394ZM19.3439 9.60808C19.2954 9.33623 19.0357 9.15517 18.7639 9.20367C18.492 9.25217 18.311 9.51186 18.3595 9.78371L19.3439 9.60808ZM14.0647 5.60573C13.7886 5.60573 13.5647 5.82959 13.5647 6.10573C13.5647 6.38188 13.7886 6.60573 14.0647 6.60573V5.60573ZM16.8027 6.10573V6.60574L16.8059 6.60572L16.8027 6.10573ZM18.0522 6.63238L17.6921 6.97925L18.0522 6.63238ZM18.5317 7.90065L18.0322 7.8788C18.0306 7.91554 18.033 7.95234 18.0395 7.98854L18.5317 7.90065ZM18.36 9.78346C18.4085 10.0553 18.6682 10.2363 18.9401 10.1878C19.2119 10.1392 19.3929 9.87953 19.3444 9.60768L18.36 9.78346ZM14.5646 6.1057C14.5646 5.82956 14.3407 5.6057 14.0646 5.6057C13.7884 5.6057 13.5646 5.82956 13.5646 6.1057H14.5646ZM13.5646 9.69554C13.5646 9.97168 13.7884 10.1955 14.0646 10.1955C14.3407 10.1955 14.5646 9.97168 14.5646 9.69554H13.5646ZM13.5636 6.10584C13.5636 6.38199 13.7874 6.60584 14.0636 6.60584C14.3397 6.60584 14.5636 6.38199 14.5636 6.10584H13.5636ZM14.0636 5.49246L13.5636 5.48918V5.49246H14.0636ZM13.2478 4.66669L13.2506 4.16669H13.2478V4.66669ZM5.89864 4.66669V4.16668L5.89631 4.16669L5.89864 4.66669ZM5.31965 4.90969L4.96445 4.55779V4.55779L5.31965 4.90969ZM5.08207 5.49092H5.58208L5.58207 5.48858L5.08207 5.49092ZM5.08207 12.9091L5.58207 12.9114V12.9091H5.08207ZM5.31965 13.4903L4.96445 13.8422L5.31965 13.4903ZM5.89864 13.7333L5.89631 14.2333H5.89864V13.7333ZM6.47446 14.2333C6.7506 14.2333 6.97446 14.0094 6.97446 13.7333C6.97446 13.4571 6.7506 13.2333 6.47446 13.2333V14.2333ZM14.0661 9.19506C13.79 9.19506 13.5661 9.41892 13.5661 9.69506C13.5661 9.9712 13.79 10.1951 14.0661 10.1951V9.19506ZM18.8536 10.1951C19.1297 10.1951 19.3536 9.9712 19.3536 9.69506C19.3536 9.41892 19.1297 9.19506 18.8536 9.19506V10.1951ZM0.85025 5.70022C0.574108 5.70022 0.35025 5.92407 0.35025 6.20022C0.35025 6.47636 0.574108 6.70022 0.85025 6.70022V5.70022ZM3.25012 6.70022C3.52626 6.70022 3.75012 6.47636 3.75012 6.20022C3.75012 5.92407 3.52626 5.70022 3.25012 5.70022V6.70022ZM1.61726 8.00019C1.34112 8.00019 1.11726 8.22405 1.11726 8.50019C1.11726 8.77633 1.34112 9.00019 1.61726 9.00019V8.00019ZM3.15072 9.00019C3.42686 9.00019 3.65072 8.77633 3.65072 8.50019C3.65072 8.22405 3.42686 8.00019 3.15072 8.00019V9.00019ZM2.08529 10.3005C1.80914 10.3005 1.58529 10.5244 1.58529 10.8005C1.58529 11.0767 1.80914 11.3005 2.08529 11.3005V10.3005ZM3.15104 11.3005C3.42719 11.3005 3.65104 11.0767 3.65104 10.8005C3.65104 10.5244 3.42719 10.3005 3.15104 10.3005V11.3005ZM14.064 13.2341H9.74418V14.2341H14.064V13.2341ZM14.5674 13.7343V9.6959H13.5674V13.7343H14.5674ZM14.0668 14.2341H14.2593V13.2341H14.0668V14.2341ZM17.5366 14.2342C18.7837 14.2078 19.7744 13.1775 19.7519 11.9303L18.752 11.9484C18.7646 12.6445 18.2116 13.2197 17.5155 13.2344L17.5366 14.2342ZM19.7442 11.8515L19.3439 9.60808L18.3595 9.78371L18.7597 12.0272L19.7442 11.8515ZM14.0647 6.60573H16.8027V5.60573H14.0647V6.60573ZM16.8059 6.60572C17.14 6.60362 17.4603 6.73863 17.6921 6.97925L18.4123 6.2855C17.9905 5.84762 17.4075 5.60191 16.7996 5.60574L16.8059 6.60572ZM17.6921 6.97925C17.9238 7.21987 18.0468 7.54502 18.0322 7.8788L19.0312 7.92251C19.0578 7.3151 18.8341 6.72338 18.4123 6.2855L17.6921 6.97925ZM18.0395 7.98854L18.36 9.78346L19.3444 9.60768L19.0239 7.81276L18.0395 7.98854ZM13.5646 6.1057V9.69554H14.5646V6.1057H13.5646ZM14.5636 6.10584V5.49246H13.5636V6.10584H14.5636ZM14.5636 5.49574C14.5659 5.14533 14.4288 4.80838 14.1825 4.5591L13.4711 5.2619C13.5309 5.32239 13.5641 5.40415 13.5636 5.48918L14.5636 5.49574ZM14.1825 4.5591C13.9362 4.30982 13.601 4.16865 13.2506 4.16669L13.245 5.16668C13.33 5.16715 13.4114 5.20141 13.4711 5.2619L14.1825 4.5591ZM13.2478 4.16669H5.89864V5.16669H13.2478V4.16669ZM5.89631 4.16669C5.54612 4.16833 5.21092 4.30901 4.96445 4.55779L5.67485 5.26158C5.73466 5.20121 5.816 5.16708 5.90097 5.16668L5.89631 4.16669ZM4.96445 4.55779C4.71798 4.80657 4.58044 5.14307 4.58208 5.49327L5.58207 5.48858C5.58167 5.40361 5.61504 5.32195 5.67485 5.26158L4.96445 4.55779ZM4.58207 5.49092V12.9091H5.58207V5.49092H4.58207ZM4.58208 12.9067C4.58044 13.2569 4.71798 13.5934 4.96445 13.8422L5.67485 13.1384C5.61504 13.078 5.58167 12.9964 5.58207 12.9114L4.58208 12.9067ZM4.96445 13.8422C5.21092 14.091 5.54612 14.2317 5.89631 14.2333L5.90097 13.2333C5.816 13.2329 5.73466 13.1988 5.67485 13.1384L4.96445 13.8422ZM5.89864 14.2333H6.47446V13.2333H5.89864V14.2333ZM14.0661 10.1951H18.8536V9.19506H14.0661V10.1951ZM0.85025 6.70022H3.25012V5.70022H0.85025V6.70022ZM1.61726 9.00019H3.15072V8.00019H1.61726V9.00019ZM2.08529 11.3005H3.15104V10.3005H2.08529V11.3005Z" fill="#222222"/>
</svg>
